<svg width="1280" height="720" xmlns="http://www.w3.org/2000/svg" xmlns:xlink="http://www.w3.org/1999/xlink" overflow="hidden"><defs><clipPath id="clip0"><rect x="357" y="23" width="66" height="66"/></clipPath><clipPath id="clip1"><rect x="357" y="23" width="66" height="66"/></clipPath><clipPath id="clip2"><rect x="357" y="23" width="66" height="66"/></clipPath><linearGradient x1="361.084" y1="47.3042" x2="418.941" y2="67.6952" gradientUnits="userSpaceOnUse" spreadMethod="pad" id="fill3"><stop offset="0" stop-color="#8E44AD"/><stop offset="1" stop-color="#3498DB"/></linearGradient><linearGradient x1="361.084" y1="47.3042" x2="418.941" y2="67.6952" gradientUnits="userSpaceOnUse" spreadMethod="pad" id="fill4"><stop offset="0" stop-color="#8E44AD"/><stop offset="1" stop-color="#3498DB"/></linearGradient><linearGradient x1="361.084" y1="47.3042" x2="418.941" y2="67.6952" gradientUnits="userSpaceOnUse" spreadMethod="pad" id="fill5"><stop offset="0" stop-color="#8E44AD"/><stop offset="1" stop-color="#3498DB"/></linearGradient><linearGradient x1="361.084" y1="47.3042" x2="418.941" y2="67.6952" gradientUnits="userSpaceOnUse" spreadMethod="pad" id="fill6"><stop offset="0" stop-color="#8E44AD"/><stop offset="1" stop-color="#3498DB"/></linearGradient><linearGradient x1="361.084" y1="47.3042" x2="418.941" y2="67.6952" gradientUnits="userSpaceOnUse" spreadMethod="pad" id="fill7"><stop offset="0" stop-color="#8E44AD"/><stop offset="1" stop-color="#3498DB"/></linearGradient><linearGradient x1="361.084" y1="47.3042" x2="418.941" y2="67.6952" gradientUnits="userSpaceOnUse" spreadMethod="pad" id="fill8"><stop offset="0" stop-color="#8E44AD"/><stop offset="1" stop-color="#3498DB"/></linearGradient><clipPath id="clip9"><rect x="1019" y="153" width="47" height="46"/></clipPath><clipPath id="clip10"><rect x="1019" y="153" width="47" height="46"/></clipPath><clipPath id="clip11"><rect x="1019" y="153" width="47" height="46"/></clipPath><linearGradient x1="23" y1="17.5822" x2="23" y2="52.2611" gradientUnits="userSpaceOnUse" spreadMethod="pad" id="fill12"><stop offset="0" stop-color="#32D4F5"/><stop offset="0.22" stop-color="#32D4F5"/><stop offset="1" stop-color="#198AB3"/></linearGradient><linearGradient x1="22.0033" y1="-1.02222" x2="24.5333" y2="30.4622" gradientUnits="userSpaceOnUse" spreadMethod="pad" id="fill13"><stop offset="0" stop-color="#32D4F5"/><stop offset="0.22" stop-color="#32D4F5"/><stop offset="1" stop-color="#198AB3"/></linearGradient><linearGradient x1="1040.5" y1="316.34" x2="1040.5" y2="383.154" gradientUnits="userSpaceOnUse" spreadMethod="pad" id="fill14"><stop offset="0" stop-color="#5EA0EF"/><stop offset="0.18" stop-color="#5EA0EF"/><stop offset="1" stop-color="#0078D4"/></linearGradient><clipPath id="clip15"><rect x="1009" y="529" width="67" height="66"/></clipPath><clipPath id="clip16"><rect x="1009" y="529" width="67" height="66"/></clipPath><clipPath id="clip17"><rect x="1009" y="529" width="67" height="66"/></clipPath><linearGradient x1="32.9633" y1="60.9033" x2="32.9633" y2="-4.65667" gradientUnits="userSpaceOnUse" spreadMethod="pad" id="fill18"><stop offset="0" stop-color="#0078D4"/><stop offset="0.16" stop-color="#1380DA"/><stop offset="0.53" stop-color="#3C91E5"/><stop offset="0.82" stop-color="#559CEC"/><stop offset="1" stop-color="#5EA0EF"/></linearGradient><clipPath id="clip19"><rect x="1008" y="423" width="66" height="67"/></clipPath><clipPath id="clip20"><rect x="1008" y="423" width="66" height="67"/></clipPath><clipPath id="clip21"><rect x="1008" y="423" width="66" height="67"/></clipPath><linearGradient x1="32.9633" y1="60.9033" x2="32.9633" y2="-4.65667" gradientUnits="userSpaceOnUse" spreadMethod="pad" id="fill22"><stop offset="0" stop-color="#0078D4"/><stop offset="0.16" stop-color="#1380DA"/><stop offset="0.53" stop-color="#3C91E5"/><stop offset="0.82" stop-color="#559CEC"/><stop offset="1" stop-color="#5EA0EF"/></linearGradient><linearGradient x1="223" y1="170.582" x2="223" y2="205.261" gradientUnits="userSpaceOnUse" spreadMethod="pad" id="fill23"><stop offset="0" stop-color="#32D4F5"/><stop offset="0.22" stop-color="#32D4F5"/><stop offset="1" stop-color="#198AB3"/></linearGradient><linearGradient x1="222.003" y1="151.978" x2="224.533" y2="183.462" gradientUnits="userSpaceOnUse" spreadMethod="pad" id="fill24"><stop offset="0" stop-color="#32D4F5"/><stop offset="0.22" stop-color="#32D4F5"/><stop offset="1" stop-color="#198AB3"/></linearGradient><linearGradient x1="220.5" y1="316.34" x2="220.5" y2="383.154" gradientUnits="userSpaceOnUse" spreadMethod="pad" id="fill25"><stop offset="0" stop-color="#5EA0EF"/><stop offset="0.18" stop-color="#5EA0EF"/><stop offset="1" stop-color="#0078D4"/></linearGradient><clipPath id="clip26"><rect x="189" y="529" width="67" height="66"/></clipPath><clipPath id="clip27"><rect x="189" y="529" width="67" height="66"/></clipPath><clipPath id="clip28"><rect x="189" y="529" width="67" height="66"/></clipPath><linearGradient x1="32.9633" y1="60.9033" x2="32.9633" y2="-4.65667" gradientUnits="userSpaceOnUse" spreadMethod="pad" id="fill29"><stop offset="0" stop-color="#0078D4"/><stop offset="0.16" stop-color="#1380DA"/><stop offset="0.53" stop-color="#3C91E5"/><stop offset="0.82" stop-color="#559CEC"/><stop offset="1" stop-color="#5EA0EF"/></linearGradient><clipPath id="clip30"><rect x="188" y="423" width="66" height="67"/></clipPath><clipPath id="clip31"><rect x="188" y="423" width="66" height="67"/></clipPath><clipPath id="clip32"><rect x="188" y="423" width="66" height="67"/></clipPath><linearGradient x1="32.9633" y1="60.9033" x2="32.9633" y2="-4.65667" gradientUnits="userSpaceOnUse" spreadMethod="pad" id="fill33"><stop offset="0" stop-color="#0078D4"/><stop offset="0.16" stop-color="#1380DA"/><stop offset="0.53" stop-color="#3C91E5"/><stop offset="0.82" stop-color="#559CEC"/><stop offset="1" stop-color="#5EA0EF"/></linearGradient></defs><g><rect x="0" y="0" width="1280" height="720" fill="#FFFFFF"/><path d="M950.5 342.501C950.5 325.38 964.38 311.5 981.501 311.5L1105.5 311.5C1122.62 311.5 1136.5 325.38 1136.5 342.501L1136.5 615.499C1136.5 632.621 1122.62 646.5 1105.5 646.5L981.501 646.5C964.38 646.5 950.5 632.621 950.5 615.499Z" stroke="#000000" stroke-width="1.33333" stroke-miterlimit="8" stroke-dasharray="5.33333 4" fill="#FFFFFF" fill-rule="evenodd"/><text font-family="Calibri,Calibri_MSFontService,sans-serif" font-weight="400" font-size="14" transform="translate(995.667 394)">Discovery Relay</text><text fill="#767171" font-family="Calibri,Calibri_MSFontService,sans-serif" font-weight="400" font-size="14" transform="translate(971.247 411)">D</text><text fill="#767171" font-family="Calibri,Calibri_MSFontService,sans-serif" font-weight="400" font-size="14" transform="translate(979.913 411)">iscovery</text><text fill="#767171" font-family="Calibri,Calibri_MSFontService,sans-serif" font-weight="400" font-size="14" transform="translate(1026.41 411)">-</text><text fill="#767171" font-family="Calibri,Calibri_MSFontService,sans-serif" font-weight="400" font-size="14" transform="translate(1030.75 411)">jp</text><text fill="#767171" font-family="Calibri,Calibri_MSFontService,sans-serif" font-weight="400" font-size="14" transform="translate(1041.41 411)">.</text><text fill="#767171" font-family="Calibri,Calibri_MSFontService,sans-serif" font-weight="400" font-size="14" transform="translate(1044.91 411)">nostria.app</text><g clip-path="url(#clip0)"><g clip-path="url(#clip1)"><g clip-path="url(#clip2)"><path d="M389.538 23.0163C391.337 22.9108 393.168 23.3188 394.717 24.1833 396.108 24.9527 397.242 26.1083 397.964 27.4608 398.858 29.1351 399.173 31.0882 398.786 32.9297 398.464 34.5891 397.575 36.15 396.275 37.3187 395.096 38.4136 393.565 39.1593 391.944 39.4758 388.592 40.1688 384.866 38.8471 382.881 36.2178 381.726 34.7122 381.143 32.8374 381.23 30.9871 381.304 29.0525 382.091 27.1327 383.483 25.6941 385.015 24.0936 387.253 23.1306 389.538 23.0163Z" fill="url(#fill3)"/><path d="M377.063 31.2932C377.413 31.1779 377.867 31.1551 378.137 31.4347 378.444 31.7707 378.416 32.2332 378.492 32.6439 378.718 34.429 379.459 36.1412 380.544 37.6186 380.76 37.9105 380.932 38.279 380.803 38.6369 380.583 39.0863 380.065 39.2806 379.626 39.4935 375.777 41.3024 372.476 44.1366 370.273 47.6076 368.167 50.9035 366.969 54.7421 367.053 58.5947 367.043 59.0951 367.089 59.5972 367.058 60.0975 367.044 60.4511 366.87 60.8371 366.5 60.9796 365.87 61.2399 365.16 61.0755 364.5 61.1889 362.836 61.3595 361.207 61.8572 359.765 62.6557 359.413 62.8474 359.008 63.0664 358.587 62.9398 358.173 62.7753 358.076 62.3163 358.012 61.9443 357.608 58.6017 357.753 55.1914 358.554 51.9078 359.382 48.4879 360.803 45.1822 362.841 42.2363 366.221 37.3284 371.262 33.4362 377.063 31.2932Z" fill="url(#fill4)"/><path d="M402.225 31.3872C402.559 31.2087 402.961 31.3178 403.296 31.4374 409.208 33.7871 414.37 37.8517 417.675 43.0277 419.674 46.1566 421.022 49.6408 421.705 53.2269 422.223 55.9266 422.289 58.6914 422.054 61.421 421.983 61.8951 421.997 62.4499 421.617 62.8158 421.235 63.12 420.709 62.8967 420.343 62.6874 418.744 61.7772 416.9 61.2795 415.042 61.1449 414.501 61.1247 413.931 61.1898 413.418 60.9945 412.969 60.8239 412.815 60.3314 412.834 59.9164 413.061 56.9388 412.612 53.9137 411.493 51.1163 410.18 47.8011 407.969 44.8015 405.122 42.4798 403.637 41.2646 401.974 40.2445 400.217 39.4099 399.869 39.2419 399.49 39.0467 399.336 38.6906 399.18 38.2482 399.471 37.835 399.733 37.4911 400.877 35.9416 401.574 34.1125 401.746 32.2367 401.8 31.9184 401.91 31.564 402.225 31.3872Z" fill="url(#fill5)"/><path d="M364.945 63.7295C366.464 63.6221 368.013 63.8886 369.381 64.52 371.172 65.329 372.646 66.7422 373.451 68.4474 374.762 71.1199 374.387 74.4422 372.497 76.7919 371.27 78.352 369.391 79.4292 367.363 79.7924 365.658 80.0896 363.847 79.9647 362.25 79.3113 360.707 78.702 359.377 77.6449 358.445 76.3452 356.75 73.9769 356.514 70.7514 357.907 68.2081 359.216 65.7107 361.967 63.9141 364.945 63.7295Z" fill="url(#fill6)"/><path d="M413.311 63.7549C415.256 63.5255 417.291 63.8956 418.962 64.8691 421.458 66.2761 423.024 68.9785 422.999 71.6994 423.033 74.3683 421.582 77.0083 419.234 78.5234 417 79.9876 414.006 80.3499 411.444 79.4811 409.535 78.8523 407.893 77.5613 406.879 75.9231 406.178 74.8001 405.79 73.5144 405.705 72.2182 405.621 70.5139 406.13 68.7895 407.142 67.3701 408.523 65.4187 410.819 64.0346 413.311 63.7549Z" fill="url(#fill7)"/><path d="M376.294 76.6336C376.777 76.5149 377.215 76.8227 377.601 77.0522 380.794 79.0423 384.565 80.1714 388.383 80.4097 388.823 80.4158 389.26 80.4801 389.701 80.4792 394.061 80.4985 398.453 79.3931 402.129 77.1727 402.507 76.959 402.861 76.6723 403.309 76.6002 404.034 76.4973 404.404 77.1903 404.727 77.6687 405.657 79.022 406.918 80.1687 408.365 81.0332 408.765 81.2821 409.282 81.4835 409.457 81.9372 409.583 82.3962 409.182 82.7682 408.825 83.0162 406.378 84.7557 403.673 86.1891 400.787 87.181 397.718 88.2459 394.465 88.8351 391.196 88.9504 390.48 89.0073 389.76 89.0218 389.045 88.9591 382.775 88.7542 376.586 86.744 371.527 83.2686 371.151 82.9951 370.658 82.726 370.566 82.2547 370.474 81.7912 370.937 81.4967 371.298 81.283 372.93 80.3684 374.339 79.1003 375.325 77.5728 375.572 77.207 375.809 76.7532 376.294 76.6336Z" fill="url(#fill8)"/></g></g></g><text font-family="Calibri,Calibri_MSFontService,sans-serif" font-weight="700" font-size="37" transform="translate(443.714 68)">Nostria Architecture v1.0</text><text font-family="Calibri,Calibri_MSFontService,sans-serif" font-weight="400" font-size="15" transform="translate(434.044 172)">1. Discovery of users</text><text fill="#767171" font-family="Calibri,Calibri_MSFontService,sans-serif" font-weight="400" font-size="15" transform="translate(434.044 189)">When looking up a user on Nostria, a request is sent to</text><text fill="#767171" font-family="Calibri,Calibri_MSFontService,sans-serif" font-weight="400" font-size="15" transform="translate(762.877 189)">the</text><text fill="#767171" font-family="Calibri,Calibri_MSFontService,sans-serif" font-weight="400" font-size="15" transform="translate(786.044 189)">closests</text><text fill="#767171" font-family="Calibri,Calibri_MSFontService,sans-serif" font-weight="400" font-size="15" transform="translate(434.044 207)">Discovery</text><text fill="#767171" font-family="Calibri,Calibri_MSFontService,sans-serif" font-weight="400" font-size="15" transform="translate(495.044 207)">Relay to find the User Relays. The Discovery relay holds a</text><text fill="#767171" font-family="Calibri,Calibri_MSFontService,sans-serif" font-weight="400" font-size="15" transform="translate(434.044 225)">global list of all Nostr</text><text fill="#767171" font-family="Calibri,Calibri_MSFontService,sans-serif" font-weight="400" font-size="15" transform="translate(562.377 225)">user</text><text fill="#767171" font-family="Calibri,Calibri_MSFontService,sans-serif" font-weight="400" font-size="15" transform="translate(588.21 225)">’</text><text fill="#767171" font-family="Calibri,Calibri_MSFontService,sans-serif" font-weight="400" font-size="15" transform="translate(591.877 225)">s</text><text fill="#767171" font-family="Calibri,Calibri_MSFontService,sans-serif" font-weight="400" font-size="15" transform="translate(600.877 225)">Relay Lists</text><text fill="#767171" font-family="Calibri,Calibri_MSFontService,sans-serif" font-weight="400" font-size="15" transform="translate(662.21 225)">,</text><text fill="#767171" font-family="Calibri,Calibri_MSFontService,sans-serif" font-weight="400" font-size="15" transform="translate(669.21 225)">not just Nostria users.</text><text font-family="Calibri,Calibri_MSFontService,sans-serif" font-weight="400" font-size="15" transform="translate(432.211 366)">3. Interacting with users</text><text fill="#767171" font-family="Calibri,Calibri_MSFontService,sans-serif" font-weight="400" font-size="15" transform="translate(432.211 383)">When Nostria user’s interact with other users, commenting on</text><text fill="#767171" font-family="Calibri,Calibri_MSFontService,sans-serif" font-weight="400" font-size="15" transform="translate(432.211 401)">their posts, send direct messages or join group chats, Nostria will</text><text fill="#767171" font-family="Calibri,Calibri_MSFontService,sans-serif" font-weight="400" font-size="15" transform="translate(432.211 419)">publish events both to the receivers and the the current user’s</text><text fill="#767171" font-family="Calibri,Calibri_MSFontService,sans-serif" font-weight="400" font-size="15" transform="translate(432.211 436)">relays. This ensures the user always has a full set of their data,</text><text fill="#767171" font-family="Calibri,Calibri_MSFontService,sans-serif" font-weight="400" font-size="15" transform="translate(432.211 454)">accessible on their user relays.</text><text font-family="Calibri,Calibri_MSFontService,sans-serif" font-weight="400" font-size="15" transform="translate(432.378 252)">2. User Profiles</text><text fill="#767171" font-family="Calibri,Calibri_MSFontService,sans-serif" font-weight="400" font-size="15" transform="translate(432.378 269)">After discovery of a user’s relays on the Discovery Relay, Nostria</text><text fill="#767171" font-family="Calibri,Calibri_MSFontService,sans-serif" font-weight="400" font-size="15" transform="translate(432.378 287)">will connect to that user’s relays to retrieve their updated profile</text><text fill="#767171" font-family="Calibri,Calibri_MSFontService,sans-serif" font-weight="400" font-size="15" transform="translate(432.378 305)">and other information that is relevant. User’s does not need to</text><text fill="#767171" font-family="Calibri,Calibri_MSFontService,sans-serif" font-weight="400" font-size="15" transform="translate(432.378 322)">utilize a large centralized relay to be discovered, they only need a</text><text fill="#767171" font-family="Calibri,Calibri_MSFontService,sans-serif" font-weight="400" font-size="15" transform="translate(432.378 340)">small set of reliable relays and media servers.</text><g clip-path="url(#clip9)"><g clip-path="url(#clip10)"><g clip-path="url(#clip11)"><path d="M40.1733 46C42.2199 46 43.8789 44.341 43.8789 42.2944 43.9053 42.1508 43.9053 42.0036 43.8789 41.86 42.3967 30.1811 35.7778 20.6744 23 20.6744 10.2222 20.6744 3.42444 28.7244 2.12111 41.8856 1.89969 43.9343 3.38101 45.7746 5.42971 45.996 5.44276 45.9974 5.45582 45.9987 5.46889 46L40.1733 46Z" fill="url(#fill12)" transform="matrix(1.02174 0 0 1 1019 153)"/><path d="M23 23.4344C20.7523 23.4327 18.5524 22.7851 16.6622 21.5689L23 37.9756 29.2356 21.6711C27.3673 22.8405 25.204 23.4522 23 23.4344Z" fill="#FFFFFF" fill-opacity="0.8" transform="matrix(1.02174 0 0 1 1019 153)"/><path d="M34.73 11.7044C34.73 18.1686 29.4897 23.4089 23.0256 23.4089 16.5614 23.4089 11.3211 18.1686 11.3211 11.7044 11.3211 5.24026 16.5614-1.94973e-07 23.0256-1.94973e-07 29.4897-1.94973e-07 34.73 5.24026 34.73 11.7044Z" fill="url(#fill13)" transform="matrix(1.02174 0 0 1 1019 153)"/></g></g></g><text font-family="Calibri,Calibri_MSFontService,sans-serif" font-weight="400" font-size="14" transform="translate(996.807 219)">Nostria</text><text font-family="Calibri,Calibri_MSFontService,sans-serif" font-weight="400" font-size="14" transform="translate(1041.14 219)">in</text><text font-family="Calibri,Calibri_MSFontService,sans-serif" font-weight="400" font-size="14" transform="translate(1054.81 219)">Tokyo</text><text fill="#767171" font-family="Calibri,Calibri_MSFontService,sans-serif" font-weight="400" font-size="14" transform="translate(971.054 236)">When signing up, users is</text><text fill="#767171" font-family="Calibri,Calibri_MSFontService,sans-serif" font-weight="400" font-size="14" transform="translate(988.807 253)">assigned user relay</text><text fill="#767171" font-family="Calibri,Calibri_MSFontService,sans-serif" font-weight="400" font-size="14" transform="translate(993.641 270)">and media server</text><g><g><g><path d="M1074 357.136C1073.86 349.648 1068.34 343.354 1060.94 342.247 1060.63 331.732 1051.91 323.427 1041.39 323.636 1033.05 323.55 1025.58 328.768 1022.78 336.626 1013.81 337.779 1007.08 345.377 1007 354.418 1007.36 364.536 1015.75 372.508 1025.87 372.359L1027.51 372.359 1058.07 372.359C1058.34 372.398 1058.62 372.398 1058.89 372.359 1067.22 372.219 1073.92 365.467 1074 357.136Z" fill="url(#fill14)"/><path d="M1052.9 339.529C1049.64 334.124 1042.61 332.384 1037.21 335.642 1034.61 337.209 1032.74 339.746 1032.01 342.693 1031.35 345.564 1031.79 348.58 1033.24 351.143L1024.53 359.964C1023.38 361.11 1023.38 362.972 1024.52 364.123 1024.52 364.126 1024.53 364.13 1024.53 364.133 1025.08 364.688 1025.83 364.996 1026.62 364.989 1027.4 365.005 1028.15 364.695 1028.7 364.133L1037.37 355.349C1038.32 355.897 1039.33 356.31 1040.39 356.577 1046.54 358.056 1052.73 354.263 1054.21 348.107 1054.91 345.185 1054.44 342.105 1052.9 339.529ZM1050.89 347.346C1050.01 350.938 1046.8 353.473 1043.11 353.488 1042.46 353.493 1041.82 353.405 1041.21 353.227 1040.27 353.015 1039.38 352.61 1038.6 352.036 1037.78 351.478 1037.08 350.771 1036.52 349.952 1035.24 348.064 1034.82 345.725 1035.36 343.512 1036.19 339.903 1039.4 337.343 1043.11 337.333 1043.76 337.334 1044.41 337.409 1045.04 337.557 1047.1 338.103 1048.87 339.44 1049.95 341.279 1051.07 343.094 1051.4 345.281 1050.89 347.346Z" fill="#F2F2F2"/><path d="M1051.07 345.448C1051.07 349.888 1047.49 353.488 1043.07 353.488 1038.65 353.488 1035.07 349.888 1035.07 345.448 1035.07 341.007 1038.65 337.408 1043.07 337.408 1047.49 337.408 1051.07 341.007 1051.07 345.448Z" fill="#83B9F9"/></g></g></g><text font-family="Calibri,Calibri_MSFontService,sans-serif" font-weight="400" font-size="14" transform="translate(1006.5 497)">User Relays</text><text fill="#767171" font-family="Calibri,Calibri_MSFontService,sans-serif" font-weight="400" font-size="14" transform="translate(986.662 514)">r</text><text fill="#767171" font-family="Calibri,Calibri_MSFontService,sans-serif" font-weight="400" font-size="14" transform="translate(991.496 514)">ibo</text><text fill="#767171" font-family="Calibri,Calibri_MSFontService,sans-serif" font-weight="400" font-size="14" transform="translate(1009.33 514)">-</text><text fill="#767171" font-family="Calibri,Calibri_MSFontService,sans-serif" font-weight="400" font-size="14" transform="translate(1013.66 514)">jp</text><text fill="#767171" font-family="Calibri,Calibri_MSFontService,sans-serif" font-weight="400" font-size="14" transform="translate(1024.33 514)">.</text><text fill="#767171" font-family="Calibri,Calibri_MSFontService,sans-serif" font-weight="400" font-size="14" transform="translate(1027.83 514)">nostria.</text><text fill="#767171" font-family="Calibri,Calibri_MSFontService,sans-serif" font-weight="400" font-size="14" transform="translate(1070.83 514)">app</text><g clip-path="url(#clip15)"><g clip-path="url(#clip16)"><g clip-path="url(#clip17)"><path d="M66 38.6833C65.8814 31.3021 60.4332 25.0934 53.13 24.0167 52.85 13.6502 44.2477 5.45762 33.88 5.68333 25.6866 5.59946 18.3346 10.7017 15.5467 18.4067 6.69312 19.5615 0.053332 27.0783-8.39233e-07 36.0067 0.279684 45.9974 8.59888 53.8736 18.59 53.6067L20.2033 53.6067 50.3067 53.6067C50.5752 53.627 50.8448 53.627 51.1133 53.6067 59.2915 53.4689 65.8823 46.8618 66 38.6833Z" fill="url(#fill18)" transform="matrix(1.01515 0 0 1 1009 529)"/><path d="M21.8167 35.3833C21.8167 36.8211 20.6511 37.9867 19.2133 37.9867 17.7756 37.9867 16.61 36.8211 16.61 35.3833 16.61 33.9456 17.7756 32.78 19.2133 32.78 20.6511 32.78 21.8167 33.9456 21.8167 35.3833Z" fill="#E3E3E3" transform="matrix(1.01515 0 0 1 1009 529)"/><path d="M28.38 36.3733 28.38 34.2833 28.0867 34.2833 25.85 33.55 25.2633 32.12 26.4 29.7 24.9333 28.2333 24.64 28.2333 22.55 29.3333 21.12 28.7467 20.2033 26.2167 18.1133 26.2167 18.1133 26.51 17.38 28.7467 15.84 29.3333 13.4567 28.1967 11.99 29.6633 11.99 29.9567 13.0533 32.0467 12.4667 33.4767 9.9 34.3933 9.9 36.6667 10.1933 36.6667 12.43 37.4 13.0167 38.83 11.88 41.25 13.3467 42.7167 13.64 42.7167 15.73 41.6533 17.16 42.24 18.0767 44.77 20.1667 44.77 20.1667 44.4767 20.9 42.24 22.33 41.6533 24.75 42.79 26.2167 41.3233 26.2167 41.03 25.1533 38.94 25.74 37.51ZM19.2133 39.4167C16.9858 39.4167 15.18 37.6109 15.18 35.3833 15.18 33.1558 16.9858 31.35 19.2133 31.35 21.4409 31.35 23.2467 33.1558 23.2467 35.3833 23.267 37.5905 21.4942 39.3963 19.287 39.4167 19.2624 39.4169 19.2379 39.4169 19.2133 39.4167Z" fill="#FFFFFF" transform="matrix(1.01515 0 0 1 1009 529)"/><path d="M39.7467 24.1633C39.7467 25.8644 38.3677 27.2433 36.6667 27.2433 34.9656 27.2433 33.5867 25.8644 33.5867 24.1633 33.5867 22.4623 34.9656 21.0833 36.6667 21.0833 38.3677 21.0833 39.7467 22.4623 39.7467 24.1633Z" fill="#E3E3E3" transform="matrix(1.01515 0 0 1 1009 529)"/><path d="M47.6667 25.3367 47.6667 22.8433 47.3367 22.8433 44.6233 22 44 20.13 45.3567 17.1967 43.5967 15.4367 43.2667 15.4367 40.7367 16.72 39.05 16.0233 37.95 12.98 35.3467 12.98 35.3467 13.3467 34.4667 16.0233 32.7433 16.72 29.8833 15.3633 28.1233 17.1233 28.3067 17.4533 29.3333 20.1667 28.7467 22 25.6667 22.99 25.6667 25.6667 26.0333 25.6667 28.71 26.5467 29.3333 28.1967 27.9767 31.13 29.81 33 30.1767 32.8167 32.67 31.5333 34.3933 32.23 35.4933 35.2733 37.9867 35.2733 37.9867 34.9067 38.8667 32.23 40.59 31.5333 43.4867 32.89 45.2467 31.13 45.0633 30.8 44 28.16 44.6967 26.4367ZM36.6667 29.0033C33.9936 29.0033 31.8267 26.8364 31.8267 24.1633 31.8267 21.4903 33.9936 19.3233 36.6667 19.3233 39.3397 19.3233 41.5067 21.4903 41.5067 24.1633 41.527 26.8161 39.393 28.983 36.7403 29.0033 36.7157 29.0035 36.6912 29.0035 36.6667 29.0033Z" fill="#FFFFFF" transform="matrix(1.01515 0 0 1 1009 529)"/></g></g></g><text font-family="Calibri,Calibri_MSFontService,sans-serif" font-weight="400" font-size="14" transform="translate(1001.95 603)">Media Servers</text><text fill="#767171" font-family="Calibri,Calibri_MSFontService,sans-serif" font-weight="400" font-size="14" transform="translate(986.693 620)">m</text><text fill="#767171" font-family="Calibri,Calibri_MSFontService,sans-serif" font-weight="400" font-size="14" transform="translate(997.86 620)">ibo</text><text fill="#767171" font-family="Calibri,Calibri_MSFontService,sans-serif" font-weight="400" font-size="14" transform="translate(1015.69 620)">-</text><text fill="#767171" font-family="Calibri,Calibri_MSFontService,sans-serif" font-weight="400" font-size="14" transform="translate(1020.03 620)">jp</text><text fill="#767171" font-family="Calibri,Calibri_MSFontService,sans-serif" font-weight="400" font-size="14" transform="translate(1030.69 620)">.</text><text fill="#767171" font-family="Calibri,Calibri_MSFontService,sans-serif" font-weight="400" font-size="14" transform="translate(1034.19 620)">nostria.</text><text fill="#767171" font-family="Calibri,Calibri_MSFontService,sans-serif" font-weight="400" font-size="14" transform="translate(1077.19 620)">app</text><g clip-path="url(#clip19)"><g clip-path="url(#clip20)"><g clip-path="url(#clip21)"><path d="M66 38.6833C65.8814 31.3021 60.4332 25.0934 53.13 24.0167 52.85 13.6502 44.2477 5.45762 33.88 5.68333 25.6866 5.59946 18.3346 10.7017 15.5467 18.4067 6.69312 19.5615 0.053332 27.0783-8.39233e-07 36.0067 0.279684 45.9974 8.59888 53.8736 18.59 53.6067L20.2033 53.6067 50.3067 53.6067C50.5752 53.627 50.8448 53.627 51.1133 53.6067 59.2915 53.4689 65.8823 46.8618 66 38.6833Z" fill="url(#fill22)" transform="matrix(1 0 0 1.01515 1008 423)"/><path d="M21.8167 35.3833C21.8167 36.8211 20.6511 37.9867 19.2133 37.9867 17.7756 37.9867 16.61 36.8211 16.61 35.3833 16.61 33.9456 17.7756 32.78 19.2133 32.78 20.6511 32.78 21.8167 33.9456 21.8167 35.3833Z" fill="#E3E3E3" transform="matrix(1 0 0 1.01515 1008 423)"/><path d="M28.38 36.3733 28.38 34.2833 28.0867 34.2833 25.85 33.55 25.2633 32.12 26.4 29.7 24.9333 28.2333 24.64 28.2333 22.55 29.3333 21.12 28.7467 20.2033 26.2167 18.1133 26.2167 18.1133 26.51 17.38 28.7467 15.84 29.3333 13.4567 28.1967 11.99 29.6633 11.99 29.9567 13.0533 32.0467 12.4667 33.4767 9.9 34.3933 9.9 36.6667 10.1933 36.6667 12.43 37.4 13.0167 38.83 11.88 41.25 13.3467 42.7167 13.64 42.7167 15.73 41.6533 17.16 42.24 18.0767 44.77 20.1667 44.77 20.1667 44.4767 20.9 42.24 22.33 41.6533 24.75 42.79 26.2167 41.3233 26.2167 41.03 25.1533 38.94 25.74 37.51ZM19.2133 39.4167C16.9858 39.4167 15.18 37.6109 15.18 35.3833 15.18 33.1558 16.9858 31.35 19.2133 31.35 21.4409 31.35 23.2467 33.1558 23.2467 35.3833 23.267 37.5905 21.4942 39.3963 19.287 39.4167 19.2624 39.4169 19.2379 39.4169 19.2133 39.4167Z" fill="#FFFFFF" transform="matrix(1 0 0 1.01515 1008 423)"/><path d="M39.7467 24.1633C39.7467 25.8644 38.3677 27.2433 36.6667 27.2433 34.9656 27.2433 33.5867 25.8644 33.5867 24.1633 33.5867 22.4623 34.9656 21.0833 36.6667 21.0833 38.3677 21.0833 39.7467 22.4623 39.7467 24.1633Z" fill="#E3E3E3" transform="matrix(1 0 0 1.01515 1008 423)"/><path d="M47.6667 25.3367 47.6667 22.8433 47.3367 22.8433 44.6233 22 44 20.13 45.3567 17.1967 43.5967 15.4367 43.2667 15.4367 40.7367 16.72 39.05 16.0233 37.95 12.98 35.3467 12.98 35.3467 13.3467 34.4667 16.0233 32.7433 16.72 29.8833 15.3633 28.1233 17.1233 28.3067 17.4533 29.3333 20.1667 28.7467 22 25.6667 22.99 25.6667 25.6667 26.0333 25.6667 28.71 26.5467 29.3333 28.1967 27.9767 31.13 29.81 33 30.1767 32.8167 32.67 31.5333 34.3933 32.23 35.4933 35.2733 37.9867 35.2733 37.9867 34.9067 38.8667 32.23 40.59 31.5333 43.4867 32.89 45.2467 31.13 45.0633 30.8 44 28.16 44.6967 26.4367ZM36.6667 29.0033C33.9936 29.0033 31.8267 26.8364 31.8267 24.1633 31.8267 21.4903 33.9936 19.3233 36.6667 19.3233 39.3397 19.3233 41.5067 21.4903 41.5067 24.1633 41.527 26.8161 39.393 28.983 36.7403 29.0033 36.7157 29.0035 36.6912 29.0035 36.6667 29.0033Z" fill="#FFFFFF" transform="matrix(1 0 0 1.01515 1008 423)"/></g></g></g><path d="M6.66667-0.333333 16.3034-0.333333 16.3034 0.0208924 15.9701-0.312441 25.2734-0.312441 25.2734 0.354226 15.6367 0.354226 15.6367 0 15.9701 0.333333 6.66667 0.333333ZM8 4 0 0 8-4ZM23.9401-3.97911 31.9401 0.0208924 23.9401 4.02089Z" fill="#4472C4" transform="matrix(1.83697e-16 1 1 -1.83697e-16 1043.5 279.5)"/><path d="M130.5 342.501C130.5 325.38 144.38 311.5 161.501 311.5L285.499 311.5C302.621 311.5 316.5 325.38 316.5 342.501L316.5 615.499C316.5 632.621 302.621 646.5 285.499 646.5L161.501 646.5C144.38 646.5 130.5 632.621 130.5 615.499Z" stroke="#000000" stroke-width="1.33333" stroke-miterlimit="8" stroke-dasharray="5.33333 4" fill="#FFFFFF" fill-rule="evenodd"/><text font-family="Calibri,Calibri_MSFontService,sans-serif" font-weight="400" font-size="14" transform="translate(175.764 394)">Discovery Relay</text><text fill="#767171" font-family="Calibri,Calibri_MSFontService,sans-serif" font-weight="400" font-size="14" transform="translate(151.844 411)">d</text><text fill="#767171" font-family="Calibri,Calibri_MSFontService,sans-serif" font-weight="400" font-size="14" transform="translate(159.177 411)">iscovery</text><text fill="#767171" font-family="Calibri,Calibri_MSFontService,sans-serif" font-weight="400" font-size="14" transform="translate(205.677 411)">-</text><text fill="#767171" font-family="Calibri,Calibri_MSFontService,sans-serif" font-weight="400" font-size="14" transform="translate(210.01 411)">af</text><text fill="#767171" font-family="Calibri,Calibri_MSFontService,sans-serif" font-weight="400" font-size="14" transform="translate(221.01 411)">.</text><text fill="#767171" font-family="Calibri,Calibri_MSFontService,sans-serif" font-weight="400" font-size="14" transform="translate(224.51 411)">nostria.app</text><g><g><g><path d="M240.173 199C242.22 199 243.879 197.341 243.879 195.294 243.905 195.151 243.905 195.004 243.879 194.86 242.397 183.181 235.778 173.674 223 173.674 210.222 173.674 203.424 181.724 202.121 194.886 201.9 196.934 203.381 198.775 205.43 198.996 205.443 198.997 205.456 198.999 205.469 199L240.173 199Z" fill="url(#fill23)"/><path d="M223 176.434C220.752 176.433 218.552 175.785 216.662 174.569L223 190.976 229.236 174.671C227.367 175.84 225.204 176.452 223 176.434Z" fill="#FFFFFF" fill-opacity="0.8"/><path d="M234.73 164.704C234.73 171.169 229.49 176.409 223.026 176.409 216.561 176.409 211.321 171.169 211.321 164.704 211.321 158.24 216.561 153 223.026 153 229.49 153 234.73 158.24 234.73 164.704Z" fill="url(#fill24)"/></g></g></g><text font-family="Calibri,Calibri_MSFontService,sans-serif" font-weight="400" font-size="14" transform="translate(165.904 219)">Nostria</text><text font-family="Calibri,Calibri_MSFontService,sans-serif" font-weight="400" font-size="14" transform="translate(210.238 219)">in</text><text font-family="Calibri,Calibri_MSFontService,sans-serif" font-weight="400" font-size="14" transform="translate(223.904 219)">Cap Town</text><text fill="#767171" font-family="Calibri,Calibri_MSFontService,sans-serif" font-weight="400" font-size="14" transform="translate(151.151 236)">When signing up, users is</text><text fill="#767171" font-family="Calibri,Calibri_MSFontService,sans-serif" font-weight="400" font-size="14" transform="translate(168.904 253)">assigned user relay</text><text fill="#767171" font-family="Calibri,Calibri_MSFontService,sans-serif" font-weight="400" font-size="14" transform="translate(173.738 270)">and media server</text><g><g><g><path d="M254 357.136C253.864 349.648 248.341 343.354 240.935 342.247 240.631 331.732 231.91 323.427 221.393 323.636 213.053 323.55 205.578 328.768 202.782 336.626 193.814 337.779 187.075 345.377 187 354.418 187.363 364.536 195.748 372.508 205.872 372.359L207.509 372.359 238.069 372.359C238.34 372.398 238.616 372.398 238.888 372.359 247.218 372.219 253.921 365.467 254 357.136Z" fill="url(#fill25)"/><path d="M232.895 339.529C229.637 334.124 222.614 332.384 217.209 335.642 214.609 337.209 212.74 339.746 212.013 342.693 211.35 345.564 211.788 348.58 213.242 351.143L204.532 359.964C203.38 361.11 203.376 362.972 204.521 364.123 204.525 364.126 204.528 364.13 204.532 364.133 205.083 364.688 205.834 364.996 206.616 364.989 207.4 365.005 208.154 364.695 208.701 364.133L217.373 355.349C218.316 355.897 219.331 356.31 220.388 356.577 226.545 358.056 232.734 354.263 234.213 348.107 234.915 345.185 234.441 342.105 232.895 339.529ZM230.885 347.346C230.012 350.938 226.802 353.473 223.106 353.488 222.464 353.493 221.824 353.405 221.207 353.227 220.266 353.015 219.378 352.61 218.602 352.036 217.783 351.478 217.076 350.771 216.517 349.952 215.242 348.064 214.823 345.725 215.363 343.512 216.194 339.903 219.402 337.343 223.106 337.333 223.757 337.334 224.406 337.409 225.041 337.557 227.105 338.103 228.87 339.44 229.954 341.279 231.067 343.094 231.402 345.281 230.885 347.346Z" fill="#F2F2F2"/><path d="M231.071 345.448C231.071 349.888 227.488 353.488 223.068 353.488 218.649 353.488 215.066 349.888 215.066 345.448 215.066 341.007 218.649 337.408 223.068 337.408 227.488 337.408 231.071 341.007 231.071 345.448Z" fill="#83B9F9"/></g></g></g><text font-family="Calibri,Calibri_MSFontService,sans-serif" font-weight="400" font-size="14" transform="translate(186.596 497)">User Relays</text><text fill="#767171" font-family="Calibri,Calibri_MSFontService,sans-serif" font-weight="400" font-size="14" transform="translate(165.51 514)">milo</text><text fill="#767171" font-family="Calibri,Calibri_MSFontService,sans-serif" font-weight="400" font-size="14" transform="translate(190.343 514)">-</text><text fill="#767171" font-family="Calibri,Calibri_MSFontService,sans-serif" font-weight="400" font-size="14" transform="translate(194.676 514)">af</text><text fill="#767171" font-family="Calibri,Calibri_MSFontService,sans-serif" font-weight="400" font-size="14" transform="translate(205.676 514)">.</text><text fill="#767171" font-family="Calibri,Calibri_MSFontService,sans-serif" font-weight="400" font-size="14" transform="translate(209.176 514)">nostria.</text><text fill="#767171" font-family="Calibri,Calibri_MSFontService,sans-serif" font-weight="400" font-size="14" transform="translate(252.176 514)">app</text><g clip-path="url(#clip26)"><g clip-path="url(#clip27)"><g clip-path="url(#clip28)"><path d="M66 38.6833C65.8814 31.3021 60.4332 25.0934 53.13 24.0167 52.85 13.6502 44.2477 5.45762 33.88 5.68333 25.6866 5.59946 18.3346 10.7017 15.5467 18.4067 6.69312 19.5615 0.053332 27.0783-8.39233e-07 36.0067 0.279684 45.9974 8.59888 53.8736 18.59 53.6067L20.2033 53.6067 50.3067 53.6067C50.5752 53.627 50.8448 53.627 51.1133 53.6067 59.2915 53.4689 65.8823 46.8618 66 38.6833Z" fill="url(#fill29)" transform="matrix(1.01515 0 0 1 189 529)"/><path d="M21.8167 35.3833C21.8167 36.8211 20.6511 37.9867 19.2133 37.9867 17.7756 37.9867 16.61 36.8211 16.61 35.3833 16.61 33.9456 17.7756 32.78 19.2133 32.78 20.6511 32.78 21.8167 33.9456 21.8167 35.3833Z" fill="#E3E3E3" transform="matrix(1.01515 0 0 1 189 529)"/><path d="M28.38 36.3733 28.38 34.2833 28.0867 34.2833 25.85 33.55 25.2633 32.12 26.4 29.7 24.9333 28.2333 24.64 28.2333 22.55 29.3333 21.12 28.7467 20.2033 26.2167 18.1133 26.2167 18.1133 26.51 17.38 28.7467 15.84 29.3333 13.4567 28.1967 11.99 29.6633 11.99 29.9567 13.0533 32.0467 12.4667 33.4767 9.9 34.3933 9.9 36.6667 10.1933 36.6667 12.43 37.4 13.0167 38.83 11.88 41.25 13.3467 42.7167 13.64 42.7167 15.73 41.6533 17.16 42.24 18.0767 44.77 20.1667 44.77 20.1667 44.4767 20.9 42.24 22.33 41.6533 24.75 42.79 26.2167 41.3233 26.2167 41.03 25.1533 38.94 25.74 37.51ZM19.2133 39.4167C16.9858 39.4167 15.18 37.6109 15.18 35.3833 15.18 33.1558 16.9858 31.35 19.2133 31.35 21.4409 31.35 23.2467 33.1558 23.2467 35.3833 23.267 37.5905 21.4942 39.3963 19.287 39.4167 19.2624 39.4169 19.2379 39.4169 19.2133 39.4167Z" fill="#FFFFFF" transform="matrix(1.01515 0 0 1 189 529)"/><path d="M39.7467 24.1633C39.7467 25.8644 38.3677 27.2433 36.6667 27.2433 34.9656 27.2433 33.5867 25.8644 33.5867 24.1633 33.5867 22.4623 34.9656 21.0833 36.6667 21.0833 38.3677 21.0833 39.7467 22.4623 39.7467 24.1633Z" fill="#E3E3E3" transform="matrix(1.01515 0 0 1 189 529)"/><path d="M47.6667 25.3367 47.6667 22.8433 47.3367 22.8433 44.6233 22 44 20.13 45.3567 17.1967 43.5967 15.4367 43.2667 15.4367 40.7367 16.72 39.05 16.0233 37.95 12.98 35.3467 12.98 35.3467 13.3467 34.4667 16.0233 32.7433 16.72 29.8833 15.3633 28.1233 17.1233 28.3067 17.4533 29.3333 20.1667 28.7467 22 25.6667 22.99 25.6667 25.6667 26.0333 25.6667 28.71 26.5467 29.3333 28.1967 27.9767 31.13 29.81 33 30.1767 32.8167 32.67 31.5333 34.3933 32.23 35.4933 35.2733 37.9867 35.2733 37.9867 34.9067 38.8667 32.23 40.59 31.5333 43.4867 32.89 45.2467 31.13 45.0633 30.8 44 28.16 44.6967 26.4367ZM36.6667 29.0033C33.9936 29.0033 31.8267 26.8364 31.8267 24.1633 31.8267 21.4903 33.9936 19.3233 36.6667 19.3233 39.3397 19.3233 41.5067 21.4903 41.5067 24.1633 41.527 26.8161 39.393 28.983 36.7403 29.0033 36.7157 29.0035 36.6912 29.0035 36.6667 29.0033Z" fill="#FFFFFF" transform="matrix(1.01515 0 0 1 189 529)"/></g></g></g><text font-family="Calibri,Calibri_MSFontService,sans-serif" font-weight="400" font-size="14" transform="translate(182.04 603)">Media Servers</text><text fill="#767171" font-family="Calibri,Calibri_MSFontService,sans-serif" font-weight="400" font-size="14" transform="translate(168.707 620)">milo</text><text fill="#767171" font-family="Calibri,Calibri_MSFontService,sans-serif" font-weight="400" font-size="14" transform="translate(193.54 620)">-</text><text fill="#767171" font-family="Calibri,Calibri_MSFontService,sans-serif" font-weight="400" font-size="14" transform="translate(197.874 620)">af</text><text fill="#767171" font-family="Calibri,Calibri_MSFontService,sans-serif" font-weight="400" font-size="14" transform="translate(208.874 620)">.</text><text fill="#767171" font-family="Calibri,Calibri_MSFontService,sans-serif" font-weight="400" font-size="14" transform="translate(212.374 620)">nostria.</text><text fill="#767171" font-family="Calibri,Calibri_MSFontService,sans-serif" font-weight="400" font-size="14" transform="translate(255.374 620)">app</text><g clip-path="url(#clip30)"><g clip-path="url(#clip31)"><g clip-path="url(#clip32)"><path d="M66 38.6833C65.8814 31.3021 60.4332 25.0934 53.13 24.0167 52.85 13.6502 44.2477 5.45762 33.88 5.68333 25.6866 5.59946 18.3346 10.7017 15.5467 18.4067 6.69312 19.5615 0.053332 27.0783-8.39233e-07 36.0067 0.279684 45.9974 8.59888 53.8736 18.59 53.6067L20.2033 53.6067 50.3067 53.6067C50.5752 53.627 50.8448 53.627 51.1133 53.6067 59.2915 53.4689 65.8823 46.8618 66 38.6833Z" fill="url(#fill33)" transform="matrix(1 0 0 1.01515 188 423)"/><path d="M21.8167 35.3833C21.8167 36.8211 20.6511 37.9867 19.2133 37.9867 17.7756 37.9867 16.61 36.8211 16.61 35.3833 16.61 33.9456 17.7756 32.78 19.2133 32.78 20.6511 32.78 21.8167 33.9456 21.8167 35.3833Z" fill="#E3E3E3" transform="matrix(1 0 0 1.01515 188 423)"/><path d="M28.38 36.3733 28.38 34.2833 28.0867 34.2833 25.85 33.55 25.2633 32.12 26.4 29.7 24.9333 28.2333 24.64 28.2333 22.55 29.3333 21.12 28.7467 20.2033 26.2167 18.1133 26.2167 18.1133 26.51 17.38 28.7467 15.84 29.3333 13.4567 28.1967 11.99 29.6633 11.99 29.9567 13.0533 32.0467 12.4667 33.4767 9.9 34.3933 9.9 36.6667 10.1933 36.6667 12.43 37.4 13.0167 38.83 11.88 41.25 13.3467 42.7167 13.64 42.7167 15.73 41.6533 17.16 42.24 18.0767 44.77 20.1667 44.77 20.1667 44.4767 20.9 42.24 22.33 41.6533 24.75 42.79 26.2167 41.3233 26.2167 41.03 25.1533 38.94 25.74 37.51ZM19.2133 39.4167C16.9858 39.4167 15.18 37.6109 15.18 35.3833 15.18 33.1558 16.9858 31.35 19.2133 31.35 21.4409 31.35 23.2467 33.1558 23.2467 35.3833 23.267 37.5905 21.4942 39.3963 19.287 39.4167 19.2624 39.4169 19.2379 39.4169 19.2133 39.4167Z" fill="#FFFFFF" transform="matrix(1 0 0 1.01515 188 423)"/><path d="M39.7467 24.1633C39.7467 25.8644 38.3677 27.2433 36.6667 27.2433 34.9656 27.2433 33.5867 25.8644 33.5867 24.1633 33.5867 22.4623 34.9656 21.0833 36.6667 21.0833 38.3677 21.0833 39.7467 22.4623 39.7467 24.1633Z" fill="#E3E3E3" transform="matrix(1 0 0 1.01515 188 423)"/><path d="M47.6667 25.3367 47.6667 22.8433 47.3367 22.8433 44.6233 22 44 20.13 45.3567 17.1967 43.5967 15.4367 43.2667 15.4367 40.7367 16.72 39.05 16.0233 37.95 12.98 35.3467 12.98 35.3467 13.3467 34.4667 16.0233 32.7433 16.72 29.8833 15.3633 28.1233 17.1233 28.3067 17.4533 29.3333 20.1667 28.7467 22 25.6667 22.99 25.6667 25.6667 26.0333 25.6667 28.71 26.5467 29.3333 28.1967 27.9767 31.13 29.81 33 30.1767 32.8167 32.67 31.5333 34.3933 32.23 35.4933 35.2733 37.9867 35.2733 37.9867 34.9067 38.8667 32.23 40.59 31.5333 43.4867 32.89 45.2467 31.13 45.0633 30.8 44 28.16 44.6967 26.4367ZM36.6667 29.0033C33.9936 29.0033 31.8267 26.8364 31.8267 24.1633 31.8267 21.4903 33.9936 19.3233 36.6667 19.3233 39.3397 19.3233 41.5067 21.4903 41.5067 24.1633 41.527 26.8161 39.393 28.983 36.7403 29.0033 36.7157 29.0035 36.6912 29.0035 36.6667 29.0033Z" fill="#FFFFFF" transform="matrix(1 0 0 1.01515 188 423)"/></g></g></g><path d="M6.66667-0.333333 16.3034-0.333333 16.3034 0.0208924 15.9701-0.312441 25.2734-0.312441 25.2734 0.354226 15.6367 0.354226 15.6367 0 15.9701 0.333333 6.66667 0.333333ZM8 4 0 0 8-4ZM23.9401-3.97911 31.9401 0.0208924 23.9401 4.02089Z" fill="#4472C4" transform="matrix(1.83697e-16 1 1 -1.83697e-16 223.5 279.5)"/><path d="M6.6667-0.333333 132.731-0.333333 132.731 302.952 132.397 302.619 696.752 302.619 696.752 303.285 132.064 303.285 132.064 0 132.397 0.333333 6.6667 0.333333ZM8 4 0 0 8-4ZM695.419 298.952 703.419 302.952 695.419 306.952Z" fill="#4472C4" transform="matrix(-1 1.22465e-16 1.22465e-16 1 1019.92 176.5)"/><text font-family="Calibri,Calibri_MSFontService,sans-serif" font-weight="400" font-size="15" transform="translate(432.211 504)">4</text><text font-family="Calibri,Calibri_MSFontService,sans-serif" font-weight="400" font-size="15" transform="translate(439.711 504)">.</text><text font-family="Calibri,Calibri_MSFontService,sans-serif" font-weight="400" font-size="15" transform="translate(446.711 504)">Global Relay Distribution</text><text fill="#767171" font-family="Calibri,Calibri_MSFontService,sans-serif" font-weight="400" font-size="15" transform="translate(432.211 521)">Individuals with</text><text fill="#767171" font-family="Calibri,Calibri_MSFontService,sans-serif" font-weight="400" font-size="15" transform="translate(528.877 521)">large</text><text fill="#767171" font-family="Calibri,Calibri_MSFontService,sans-serif" font-weight="400" font-size="15" transform="translate(561.877 521)">amount</text><text fill="#767171" font-family="Calibri,Calibri_MSFontService,sans-serif" font-weight="400" font-size="15" transform="translate(611.711 521)">of</text><text fill="#767171" font-family="Calibri,Calibri_MSFontService,sans-serif" font-weight="400" font-size="15" transform="translate(627.211 521)">followers,</text><text fill="#767171" font-family="Calibri,Calibri_MSFontService,sans-serif" font-weight="400" font-size="15" transform="translate(689.377 521)">can</text><text fill="#767171" font-family="Calibri,Calibri_MSFontService,sans-serif" font-weight="400" font-size="15" transform="translate(713.544 521)">subscribe to global</text><text fill="#767171" font-family="Calibri,Calibri_MSFontService,sans-serif" font-weight="400" font-size="15" transform="translate(432.211 539)">relay</text><text fill="#767171" font-family="Calibri,Calibri_MSFontService,sans-serif" font-weight="400" font-size="15" transform="translate(465.044 539)">distributio</text><text fill="#767171" font-family="Calibri,Calibri_MSFontService,sans-serif" font-weight="400" font-size="15" transform="translate(526.211 539)">n</text><text fill="#767171" font-family="Calibri,Calibri_MSFontService,sans-serif" font-weight="400" font-size="15" transform="translate(533.877 539)">, giving their followers the best possible</text><text fill="#767171" font-family="Calibri,Calibri_MSFontService,sans-serif" font-weight="400" font-size="15" transform="translate(432.211 557)">experience by being able to retireve their posts and media from a</text><text fill="#767171" font-family="Calibri,Calibri_MSFontService,sans-serif" font-weight="400" font-size="15" transform="translate(432.211 574)">geographically closer location.</text></g></svg>