<svg width="1280" height="720" xmlns="http://www.w3.org/2000/svg" xmlns:xlink="http://www.w3.org/1999/xlink" overflow="hidden"><defs><linearGradient x1="572.5" y1="155.34" x2="572.5" y2="222.154" gradientUnits="userSpaceOnUse" spreadMethod="pad" id="fill0"><stop offset="0" stop-color="#5EA0EF"/><stop offset="0.18" stop-color="#5EA0EF"/><stop offset="1" stop-color="#0078D4"/></linearGradient><linearGradient x1="323.5" y1="184.609" x2="323.5" y2="235.119" gradientUnits="userSpaceOnUse" spreadMethod="pad" id="fill1"><stop offset="0" stop-color="#32D4F5"/><stop offset="0.22" stop-color="#32D4F5"/><stop offset="1" stop-color="#198AB3"/></linearGradient><linearGradient x1="322.048" y1="157.511" x2="325.733" y2="203.369" gradientUnits="userSpaceOnUse" spreadMethod="pad" id="fill2"><stop offset="0" stop-color="#32D4F5"/><stop offset="0.22" stop-color="#32D4F5"/><stop offset="1" stop-color="#198AB3"/></linearGradient><linearGradient x1="266.463" y1="372.826" x2="266.463" y2="306.273" gradientUnits="userSpaceOnUse" spreadMethod="pad" id="fill3"><stop offset="0" stop-color="#0078D4"/><stop offset="0.16" stop-color="#1380DA"/><stop offset="0.53" stop-color="#3C91E5"/><stop offset="0.82" stop-color="#559CEC"/><stop offset="1" stop-color="#5EA0EF"/></linearGradient><linearGradient x1="383.463" y1="375.826" x2="383.463" y2="309.273" gradientUnits="userSpaceOnUse" spreadMethod="pad" id="fill4"><stop offset="0" stop-color="#0078D4"/><stop offset="0.16" stop-color="#1380DA"/><stop offset="0.53" stop-color="#3C91E5"/><stop offset="0.82" stop-color="#559CEC"/><stop offset="1" stop-color="#5EA0EF"/></linearGradient><clipPath id="clip5"><rect x="762" y="501" width="34" height="33"/></clipPath><clipPath id="clip6"><rect x="762" y="501" width="34" height="33"/></clipPath><clipPath id="clip7"><rect x="762" y="501" width="34" height="33"/></clipPath><linearGradient x1="16.4817" y1="30.4517" x2="16.4817" y2="-2.32833" gradientUnits="userSpaceOnUse" spreadMethod="pad" id="fill8"><stop offset="0" stop-color="#0078D4"/><stop offset="0.16" stop-color="#1380DA"/><stop offset="0.53" stop-color="#3C91E5"/><stop offset="0.82" stop-color="#559CEC"/><stop offset="1" stop-color="#5EA0EF"/></linearGradient><clipPath id="clip9"><rect x="762" y="533" width="33" height="34"/></clipPath><clipPath id="clip10"><rect x="762" y="533" width="33" height="34"/></clipPath><clipPath id="clip11"><rect x="762" y="533" width="33" height="34"/></clipPath><linearGradient x1="16.4817" y1="30.4517" x2="16.4817" y2="-2.32833" gradientUnits="userSpaceOnUse" spreadMethod="pad" id="fill12"><stop offset="0" stop-color="#0078D4"/><stop offset="0.16" stop-color="#1380DA"/><stop offset="0.53" stop-color="#3C91E5"/><stop offset="0.82" stop-color="#559CEC"/><stop offset="1" stop-color="#5EA0EF"/></linearGradient><clipPath id="clip13"><rect x="715" y="499" width="34" height="33"/></clipPath><clipPath id="clip14"><rect x="715" y="499" width="34" height="33"/></clipPath><clipPath id="clip15"><rect x="715" y="499" width="34" height="33"/></clipPath><linearGradient x1="16.4817" y1="30.4517" x2="16.4817" y2="-2.32833" gradientUnits="userSpaceOnUse" spreadMethod="pad" id="fill16"><stop offset="0" stop-color="#0078D4"/><stop offset="0.16" stop-color="#1380DA"/><stop offset="0.53" stop-color="#3C91E5"/><stop offset="0.82" stop-color="#559CEC"/><stop offset="1" stop-color="#5EA0EF"/></linearGradient><linearGradient x1="733.482" y1="561.452" x2="733.482" y2="528.672" gradientUnits="userSpaceOnUse" spreadMethod="pad" id="fill17"><stop offset="0" stop-color="#0078D4"/><stop offset="0.16" stop-color="#1380DA"/><stop offset="0.53" stop-color="#3C91E5"/><stop offset="0.82" stop-color="#559CEC"/><stop offset="1" stop-color="#5EA0EF"/></linearGradient><clipPath id="clip18"><rect x="357" y="23" width="66" height="66"/></clipPath><clipPath id="clip19"><rect x="357" y="23" width="66" height="66"/></clipPath><clipPath id="clip20"><rect x="357" y="23" width="66" height="66"/></clipPath><linearGradient x1="361.084" y1="47.3042" x2="418.941" y2="67.6952" gradientUnits="userSpaceOnUse" spreadMethod="pad" id="fill21"><stop offset="0" stop-color="#8E44AD"/><stop offset="1" stop-color="#3498DB"/></linearGradient><linearGradient x1="361.084" y1="47.3042" x2="418.941" y2="67.6952" gradientUnits="userSpaceOnUse" spreadMethod="pad" id="fill22"><stop offset="0" stop-color="#8E44AD"/><stop offset="1" stop-color="#3498DB"/></linearGradient><linearGradient x1="361.084" y1="47.3042" x2="418.941" y2="67.6952" gradientUnits="userSpaceOnUse" spreadMethod="pad" id="fill23"><stop offset="0" stop-color="#8E44AD"/><stop offset="1" stop-color="#3498DB"/></linearGradient><linearGradient x1="361.084" y1="47.3042" x2="418.941" y2="67.6952" gradientUnits="userSpaceOnUse" spreadMethod="pad" id="fill24"><stop offset="0" stop-color="#8E44AD"/><stop offset="1" stop-color="#3498DB"/></linearGradient><linearGradient x1="361.084" y1="47.3042" x2="418.941" y2="67.6952" gradientUnits="userSpaceOnUse" spreadMethod="pad" id="fill25"><stop offset="0" stop-color="#8E44AD"/><stop offset="1" stop-color="#3498DB"/></linearGradient><linearGradient x1="361.084" y1="47.3042" x2="418.941" y2="67.6952" gradientUnits="userSpaceOnUse" spreadMethod="pad" id="fill26"><stop offset="0" stop-color="#8E44AD"/><stop offset="1" stop-color="#3498DB"/></linearGradient><linearGradient x1="685.5" y1="523.787" x2="685.5" y2="566.758" gradientUnits="userSpaceOnUse" spreadMethod="pad" id="fill27"><stop offset="0" stop-color="#32D4F5"/><stop offset="0.22" stop-color="#32D4F5"/><stop offset="1" stop-color="#198AB3"/></linearGradient><linearGradient x1="684.265" y1="500.733" x2="687.4" y2="539.747" gradientUnits="userSpaceOnUse" spreadMethod="pad" id="fill28"><stop offset="0" stop-color="#32D4F5"/><stop offset="0.22" stop-color="#32D4F5"/><stop offset="1" stop-color="#198AB3"/></linearGradient><clipPath id="clip29"><rect x="764" y="590" width="33" height="34"/></clipPath><clipPath id="clip30"><rect x="764" y="590" width="33" height="34"/></clipPath><clipPath id="clip31"><rect x="764" y="590" width="33" height="34"/></clipPath><linearGradient x1="16.4817" y1="30.4517" x2="16.4817" y2="-2.32833" gradientUnits="userSpaceOnUse" spreadMethod="pad" id="fill32"><stop offset="0" stop-color="#0078D4"/><stop offset="0.16" stop-color="#1380DA"/><stop offset="0.53" stop-color="#3C91E5"/><stop offset="0.82" stop-color="#559CEC"/><stop offset="1" stop-color="#5EA0EF"/></linearGradient><linearGradient x1="780.482" y1="653.452" x2="780.482" y2="620.672" gradientUnits="userSpaceOnUse" spreadMethod="pad" id="fill33"><stop offset="0" stop-color="#0078D4"/><stop offset="0.16" stop-color="#1380DA"/><stop offset="0.53" stop-color="#3C91E5"/><stop offset="0.82" stop-color="#559CEC"/><stop offset="1" stop-color="#5EA0EF"/></linearGradient><clipPath id="clip34"><rect x="717" y="588" width="33" height="34"/></clipPath><clipPath id="clip35"><rect x="717" y="588" width="33" height="34"/></clipPath><clipPath id="clip36"><rect x="717" y="588" width="33" height="34"/></clipPath><linearGradient x1="16.4817" y1="30.4517" x2="16.4817" y2="-2.32833" gradientUnits="userSpaceOnUse" spreadMethod="pad" id="fill37"><stop offset="0" stop-color="#0078D4"/><stop offset="0.16" stop-color="#1380DA"/><stop offset="0.53" stop-color="#3C91E5"/><stop offset="0.82" stop-color="#559CEC"/><stop offset="1" stop-color="#5EA0EF"/></linearGradient><clipPath id="clip38"><rect x="719" y="620" width="33" height="34"/></clipPath><clipPath id="clip39"><rect x="719" y="620" width="33" height="34"/></clipPath><clipPath id="clip40"><rect x="719" y="620" width="33" height="34"/></clipPath><linearGradient x1="16.4817" y1="30.4517" x2="16.4817" y2="-2.32833" gradientUnits="userSpaceOnUse" spreadMethod="pad" id="fill41"><stop offset="0" stop-color="#0078D4"/><stop offset="0.16" stop-color="#1380DA"/><stop offset="0.53" stop-color="#3C91E5"/><stop offset="0.82" stop-color="#559CEC"/><stop offset="1" stop-color="#5EA0EF"/></linearGradient><linearGradient x1="686.5" y1="613.787" x2="686.5" y2="656.758" gradientUnits="userSpaceOnUse" spreadMethod="pad" id="fill42"><stop offset="0" stop-color="#32D4F5"/><stop offset="0.22" stop-color="#32D4F5"/><stop offset="1" stop-color="#198AB3"/></linearGradient><linearGradient x1="685.265" y1="590.733" x2="688.4" y2="629.747" gradientUnits="userSpaceOnUse" spreadMethod="pad" id="fill43"><stop offset="0" stop-color="#32D4F5"/><stop offset="0.22" stop-color="#32D4F5"/><stop offset="1" stop-color="#198AB3"/></linearGradient></defs><g><rect x="0" y="0" width="1280" height="720" fill="#FFFFFF"/><path d="M201.5 186.168C201.5 163.708 219.708 145.5 242.168 145.5L404.832 145.5C427.293 145.5 445.5 163.708 445.5 186.168L445.5 440.832C445.5 463.293 427.293 481.5 404.832 481.5L242.168 481.5C219.708 481.5 201.5 463.293 201.5 440.832Z" stroke="#000000" stroke-width="1.33333" stroke-miterlimit="8" stroke-dasharray="5.33333 4" fill="#FFFFFF" fill-rule="evenodd"/><path d="M646.5 508.334C646.5 501.246 652.246 495.5 659.334 495.5L797.667 495.5C804.754 495.5 810.5 501.246 810.5 508.334L810.5 559.666C810.5 566.754 804.754 572.5 797.667 572.5L659.334 572.5C652.246 572.5 646.5 566.754 646.5 559.666Z" stroke="#000000" stroke-width="1.33333" stroke-miterlimit="8" stroke-dasharray="5.33333 4" fill="#FFFFFF" fill-rule="evenodd"/><g><g><g><path d="M606 196.136C605.864 188.648 600.341 182.354 592.935 181.247 592.631 170.732 583.91 162.427 573.393 162.636 565.053 162.55 557.578 167.768 554.782 175.626 545.814 176.779 539.075 184.377 539 193.418 539.363 203.536 547.748 211.508 557.872 211.359L559.509 211.359 590.069 211.359C590.34 211.398 590.616 211.398 590.888 211.359 599.218 211.219 605.921 204.467 606 196.136Z" fill="url(#fill0)"/><path d="M584.895 178.529C581.637 173.124 574.614 171.384 569.209 174.642 566.609 176.209 564.74 178.746 564.013 181.693 563.35 184.564 563.788 187.58 565.242 190.143L556.532 198.964C555.38 200.11 555.376 201.972 556.521 203.123 556.525 203.126 556.528 203.13 556.532 203.133 557.083 203.688 557.834 203.996 558.616 203.989 559.4 204.005 560.154 203.695 560.701 203.133L569.373 194.349C570.316 194.897 571.331 195.31 572.388 195.577 578.545 197.056 584.734 193.263 586.213 187.107 586.915 184.185 586.441 181.105 584.895 178.529ZM582.885 186.346C582.012 189.938 578.802 192.472 575.106 192.488 574.464 192.493 573.824 192.405 573.207 192.227 572.266 192.015 571.378 191.61 570.602 191.036 569.783 190.478 569.076 189.771 568.517 188.952 567.242 187.064 566.823 184.725 567.363 182.512 568.194 178.903 571.402 176.343 575.106 176.333 575.757 176.334 576.406 176.409 577.041 176.557 579.105 177.103 580.87 178.44 581.954 180.279 583.067 182.094 583.402 184.281 582.885 186.346Z" fill="#F2F2F2"/><path d="M583.071 184.448C583.071 188.888 579.488 192.488 575.068 192.488 570.648 192.488 567.066 188.888 567.066 184.448 567.066 180.007 570.648 176.408 575.068 176.408 579.488 176.408 583.071 180.007 583.071 184.448Z" fill="#83B9F9"/></g></g></g><text font-family="Calibri,Calibri_MSFontService,sans-serif" font-weight="400" font-size="15" transform="translate(525.637 232)">Discovery Relay</text><text fill="#767171" font-family="Calibri,Calibri_MSFontService,sans-serif" font-weight="400" font-size="15" transform="translate(508.637 249)">discovery.nostria.app</text><g><g><g><path d="M348.513 226C351.494 226 353.911 223.584 353.911 220.603 353.949 220.394 353.949 220.179 353.911 219.97 351.752 202.959 342.111 189.113 323.5 189.113 304.889 189.113 294.988 200.838 293.089 220.007 292.767 222.991 294.924 225.672 297.908 225.994 297.927 225.996 297.947 225.998 297.966 226L348.513 226Z" fill="url(#fill1)"/><path d="M323.5 193.133C320.226 193.13 317.022 192.187 314.269 190.416L323.5 214.312 332.582 190.564C329.861 192.268 326.71 193.159 323.5 193.133Z" fill="#FFFFFF" fill-opacity="0.8"/><path d="M340.585 176.048C340.585 185.463 332.952 193.096 323.537 193.096 314.122 193.096 306.489 185.463 306.489 176.048 306.489 166.633 314.122 159 323.537 159 332.952 159 340.585 166.633 340.585 176.048Z" fill="url(#fill2)"/></g></g></g><text font-family="Calibri,Calibri_MSFontService,sans-serif" font-weight="400" font-size="15" transform="translate(347.793 389)">User Relays</text><text fill="#767171" font-family="Calibri,Calibri_MSFontService,sans-serif" font-weight="400" font-size="15" transform="translate(334.793 406)">ribo.nostria.app</text><text fill="#767171" font-family="Calibri,Calibri_MSFontService,sans-serif" font-weight="400" font-size="15" transform="translate(336.96 424)">rilo.nostria.app</text><text fill="#767171" font-family="Calibri,Calibri_MSFontService,sans-serif" font-weight="400" font-size="15" transform="translate(336.373 442)">rifu.nostria.app</text><text fill="#767171" font-family="Calibri,Calibri_MSFontService,sans-serif" font-weight="400" font-size="15" transform="translate(376.707 459)">...</text><g><g><g><path d="M300 350.269C299.88 342.776 294.349 336.474 286.935 335.381 286.651 324.857 277.918 316.54 267.393 316.769 259.076 316.684 251.612 321.864 248.782 329.686 239.795 330.858 233.054 338.489 233 347.552 233.284 357.694 241.729 365.69 251.872 365.419L253.509 365.419 284.069 365.419C284.341 365.439 284.615 365.439 284.888 365.419 293.19 365.279 299.881 358.572 300 350.269Z" fill="url(#fill3)"/><path d="M255.147 346.919C255.147 348.379 253.964 349.562 252.504 349.562 251.045 349.562 249.862 348.379 249.862 346.919 249.862 345.46 251.045 344.277 252.504 344.277 253.964 344.277 255.147 345.46 255.147 346.919Z" fill="#E3E3E3"/><path d="M261.81 347.924 261.81 345.803 261.512 345.803 259.242 345.058 258.646 343.607 259.8 341.15 258.311 339.661 258.013 339.661 255.892 340.778 254.44 340.182 253.509 337.614 251.388 337.614 251.388 337.912 250.643 340.182 249.08 340.778 246.661 339.624 245.172 341.113 245.172 341.411 246.251 343.532 245.656 344.984 243.05 345.914 243.05 348.222 243.348 348.222 245.618 348.967 246.214 350.418 245.06 352.875 246.549 354.364 246.847 354.364 248.968 353.284 250.42 353.88 251.351 356.448 253.472 356.448 253.472 356.151 254.217 353.88 255.668 353.284 258.125 354.438 259.614 352.949 259.614 352.652 258.534 350.53 259.13 349.078ZM252.504 351.014C250.243 351.014 248.41 349.181 248.41 346.919 248.41 344.658 250.243 342.825 252.504 342.825 254.766 342.825 256.599 344.658 256.599 346.919 256.62 349.16 254.82 350.993 252.579 351.014 252.554 351.014 252.529 351.014 252.504 351.014Z" fill="#FFFFFF"/><path d="M273.349 335.529C273.349 337.256 271.949 338.656 270.222 338.656 268.495 338.656 267.096 337.256 267.096 335.529 267.096 333.803 268.495 332.403 270.222 332.403 271.949 332.403 273.349 333.803 273.349 335.529Z" fill="#E3E3E3"/><path d="M281.389 336.721 281.389 334.189 281.054 334.189 278.299 333.333 277.667 331.435 279.044 328.457 277.257 326.671 276.922 326.671 274.354 327.973 272.642 327.266 271.525 324.177 268.882 324.177 268.882 324.549 267.989 327.266 266.239 327.973 263.336 326.596 261.549 328.383 261.736 328.718 262.778 331.472 262.182 333.333 259.056 334.338 259.056 337.056 259.428 337.056 262.145 337.949 262.778 339.624 261.401 342.602 263.262 344.5 263.634 344.314 266.165 343.011 267.914 343.718 269.031 346.808 271.562 346.808 271.562 346.436 272.456 343.718 274.205 343.011 277.146 344.388 278.932 342.602 278.746 342.267 277.667 339.587 278.374 337.837ZM270.222 340.443C267.509 340.443 265.309 338.243 265.309 335.529 265.309 332.816 267.509 330.616 270.222 330.616 272.936 330.616 275.136 332.816 275.136 335.529 275.156 338.222 272.99 340.422 270.297 340.443 270.272 340.443 270.247 340.443 270.222 340.443Z" fill="#FFFFFF"/></g></g></g><text font-family="Calibri,Calibri_MSFontService,sans-serif" font-weight="400" font-size="15" transform="translate(224.201 387)">Media Servers</text><text fill="#767171" font-family="Calibri,Calibri_MSFontService,sans-serif" font-weight="400" font-size="15" transform="translate(216.114 404)">mibo.nostria.app</text><text fill="#767171" font-family="Calibri,Calibri_MSFontService,sans-serif" font-weight="400" font-size="15" transform="translate(218.281 422)">milo.nostria.app</text><text fill="#767171" font-family="Calibri,Calibri_MSFontService,sans-serif" font-weight="400" font-size="15" transform="translate(217.701 440)">mifu.nostria.app</text><text fill="#767171" font-family="Calibri,Calibri_MSFontService,sans-serif" font-weight="400" font-size="15" transform="translate(261.281 457)">...</text><g><g><g><path d="M417 353.269C416.88 345.776 411.349 339.474 403.935 338.381 403.651 327.857 394.918 319.54 384.393 319.769 376.076 319.684 368.612 324.864 365.782 332.686 356.795 333.858 350.054 341.489 350 350.552 350.284 360.694 358.729 368.69 368.872 368.419L370.509 368.419 401.069 368.419C401.341 368.439 401.615 368.439 401.888 368.419 410.19 368.279 416.881 361.572 417 353.269Z" fill="url(#fill4)"/><path d="M372.147 349.919C372.147 351.379 370.964 352.562 369.504 352.562 368.045 352.562 366.862 351.379 366.862 349.919 366.862 348.46 368.045 347.277 369.504 347.277 370.964 347.277 372.147 348.46 372.147 349.919Z" fill="#E3E3E3"/><path d="M378.81 350.924 378.81 348.803 378.512 348.803 376.242 348.058 375.646 346.607 376.8 344.15 375.311 342.661 375.013 342.661 372.892 343.778 371.44 343.182 370.509 340.614 368.388 340.614 368.388 340.912 367.643 343.182 366.08 343.778 363.661 342.624 362.172 344.113 362.172 344.411 363.251 346.532 362.656 347.984 360.05 348.914 360.05 351.222 360.348 351.222 362.618 351.967 363.214 353.418 362.06 355.875 363.549 357.364 363.847 357.364 365.968 356.284 367.42 356.88 368.351 359.448 370.472 359.448 370.472 359.151 371.217 356.88 372.668 356.284 375.125 357.438 376.614 355.949 376.614 355.652 375.534 353.53 376.13 352.078ZM369.504 354.014C367.243 354.014 365.41 352.181 365.41 349.919 365.41 347.658 367.243 345.825 369.504 345.825 371.766 345.825 373.599 347.658 373.599 349.919 373.62 352.16 371.82 353.993 369.579 354.014 369.554 354.014 369.529 354.014 369.504 354.014Z" fill="#FFFFFF"/><path d="M390.349 338.529C390.349 340.256 388.949 341.656 387.222 341.656 385.495 341.656 384.096 340.256 384.096 338.529 384.096 336.803 385.495 335.403 387.222 335.403 388.949 335.403 390.349 336.803 390.349 338.529Z" fill="#E3E3E3"/><path d="M398.389 339.721 398.389 337.189 398.054 337.189 395.299 336.333 394.667 334.435 396.044 331.457 394.257 329.671 393.922 329.671 391.354 330.973 389.642 330.266 388.525 327.177 385.882 327.177 385.882 327.549 384.989 330.266 383.239 330.973 380.336 329.596 378.549 331.383 378.736 331.718 379.778 334.472 379.182 336.333 376.056 337.338 376.056 340.056 376.428 340.056 379.145 340.949 379.778 342.624 378.401 345.602 380.262 347.5 380.634 347.314 383.165 346.011 384.914 346.718 386.031 349.808 388.562 349.808 388.562 349.436 389.456 346.718 391.205 346.011 394.146 347.388 395.932 345.602 395.746 345.267 394.667 342.587 395.374 340.837ZM387.222 343.443C384.509 343.443 382.309 341.243 382.309 338.529 382.309 335.816 384.509 333.616 387.222 333.616 389.936 333.616 392.136 335.816 392.136 338.529 392.156 341.222 389.99 343.422 387.297 343.443 387.272 343.443 387.247 343.443 387.222 343.443Z" fill="#FFFFFF"/></g></g></g><g clip-path="url(#clip5)"><g clip-path="url(#clip6)"><g clip-path="url(#clip7)"><path d="M33 19.3417C32.9407 15.651 30.2166 12.5467 26.565 12.0083 26.425 6.82512 22.1239 2.72881 16.94 2.84167 12.8433 2.79973 9.16731 5.35087 7.77333 9.20333 3.34656 9.78077 0.026666 13.5391-4.19617e-07 18.0033 0.139842 22.9987 4.29944 26.9368 9.295 26.8033L10.1017 26.8033 25.1533 26.8033C25.2876 26.8135 25.4224 26.8135 25.5567 26.8033 29.6457 26.7344 32.9412 23.4309 33 19.3417Z" fill="url(#fill8)" transform="matrix(1.0303 0 0 1 762 501)"/><path d="M10.9083 17.6917C10.9083 18.4106 10.3256 18.9933 9.60667 18.9933 8.88778 18.9933 8.305 18.4106 8.305 17.6917 8.305 16.9728 8.88778 16.39 9.60667 16.39 10.3256 16.39 10.9083 16.9728 10.9083 17.6917Z" fill="#E3E3E3" transform="matrix(1.0303 0 0 1 762 501)"/><path d="M14.19 18.1867 14.19 17.1417 14.0433 17.1417 12.925 16.775 12.6317 16.06 13.2 14.85 12.4667 14.1167 12.32 14.1167 11.275 14.6667 10.56 14.3733 10.1017 13.1083 9.05667 13.1083 9.05667 13.255 8.69 14.3733 7.92 14.6667 6.72833 14.0983 5.995 14.8317 5.995 14.9783 6.52667 16.0233 6.23333 16.7383 4.95 17.1967 4.95 18.3333 5.09667 18.3333 6.215 18.7 6.50833 19.415 5.94 20.625 6.67333 21.3583 6.82 21.3583 7.865 20.8267 8.58 21.12 9.03833 22.385 10.0833 22.385 10.0833 22.2383 10.45 21.12 11.165 20.8267 12.375 21.395 13.1083 20.6617 13.1083 20.515 12.5767 19.47 12.87 18.755ZM9.60667 19.7083C8.49289 19.7083 7.59 18.8054 7.59 17.6917 7.59 16.5779 8.49289 15.675 9.60667 15.675 10.7204 15.675 11.6233 16.5779 11.6233 17.6917 11.6335 18.7953 10.7471 19.6982 9.6435 19.7083 9.63122 19.7084 9.61894 19.7084 9.60667 19.7083Z" fill="#FFFFFF" transform="matrix(1.0303 0 0 1 762 501)"/><path d="M19.8733 12.0817C19.8733 12.9322 19.1839 13.6217 18.3333 13.6217 17.4828 13.6217 16.7933 12.9322 16.7933 12.0817 16.7933 11.2311 17.4828 10.5417 18.3333 10.5417 19.1839 10.5417 19.8733 11.2311 19.8733 12.0817Z" fill="#E3E3E3" transform="matrix(1.0303 0 0 1 762 501)"/><path d="M23.8333 12.6683 23.8333 11.4217 23.6683 11.4217 22.3117 11 22 10.065 22.6783 8.59833 21.7983 7.71833 21.6333 7.71833 20.3683 8.36 19.525 8.01167 18.975 6.49 17.6733 6.49 17.6733 6.67333 17.2333 8.01167 16.3717 8.36 14.9417 7.68167 14.0617 8.56167 14.1533 8.72667 14.6667 10.0833 14.3733 11 12.8333 11.495 12.8333 12.8333 13.0167 12.8333 14.355 13.2733 14.6667 14.0983 13.9883 15.565 14.905 16.5 15.0883 16.4083 16.335 15.7667 17.1967 16.115 17.7467 17.6367 18.9933 17.6367 18.9933 17.4533 19.4333 16.115 20.295 15.7667 21.7433 16.445 22.6233 15.565 22.5317 15.4 22 14.08 22.3483 13.2183ZM18.3333 14.5017C16.9968 14.5017 15.9133 13.4182 15.9133 12.0817 15.9133 10.7451 16.9968 9.66167 18.3333 9.66167 19.6699 9.66167 20.7533 10.7451 20.7533 12.0817 20.7635 13.408 19.6965 14.4915 18.3701 14.5017 18.3579 14.5018 18.3456 14.5018 18.3333 14.5017Z" fill="#FFFFFF" transform="matrix(1.0303 0 0 1 762 501)"/></g></g></g><g clip-path="url(#clip9)"><g clip-path="url(#clip10)"><g clip-path="url(#clip11)"><path d="M33 19.3417C32.9407 15.651 30.2166 12.5467 26.565 12.0083 26.425 6.82512 22.1239 2.72881 16.94 2.84167 12.8433 2.79973 9.16731 5.35087 7.77333 9.20333 3.34656 9.78077 0.026666 13.5391-4.19617e-07 18.0033 0.139842 22.9987 4.29944 26.9368 9.295 26.8033L10.1017 26.8033 25.1533 26.8033C25.2876 26.8135 25.4224 26.8135 25.5567 26.8033 29.6457 26.7344 32.9412 23.4309 33 19.3417Z" fill="url(#fill12)" transform="matrix(1 0 0 1.0303 762 533)"/><path d="M10.9083 17.6917C10.9083 18.4106 10.3256 18.9933 9.60667 18.9933 8.88778 18.9933 8.305 18.4106 8.305 17.6917 8.305 16.9728 8.88778 16.39 9.60667 16.39 10.3256 16.39 10.9083 16.9728 10.9083 17.6917Z" fill="#E3E3E3" transform="matrix(1 0 0 1.0303 762 533)"/><path d="M14.19 18.1867 14.19 17.1417 14.0433 17.1417 12.925 16.775 12.6317 16.06 13.2 14.85 12.4667 14.1167 12.32 14.1167 11.275 14.6667 10.56 14.3733 10.1017 13.1083 9.05667 13.1083 9.05667 13.255 8.69 14.3733 7.92 14.6667 6.72833 14.0983 5.995 14.8317 5.995 14.9783 6.52667 16.0233 6.23333 16.7383 4.95 17.1967 4.95 18.3333 5.09667 18.3333 6.215 18.7 6.50833 19.415 5.94 20.625 6.67333 21.3583 6.82 21.3583 7.865 20.8267 8.58 21.12 9.03833 22.385 10.0833 22.385 10.0833 22.2383 10.45 21.12 11.165 20.8267 12.375 21.395 13.1083 20.6617 13.1083 20.515 12.5767 19.47 12.87 18.755ZM9.60667 19.7083C8.49289 19.7083 7.59 18.8054 7.59 17.6917 7.59 16.5779 8.49289 15.675 9.60667 15.675 10.7204 15.675 11.6233 16.5779 11.6233 17.6917 11.6335 18.7953 10.7471 19.6982 9.6435 19.7083 9.63122 19.7084 9.61894 19.7084 9.60667 19.7083Z" fill="#FFFFFF" transform="matrix(1 0 0 1.0303 762 533)"/><path d="M19.8733 12.0817C19.8733 12.9322 19.1839 13.6217 18.3333 13.6217 17.4828 13.6217 16.7933 12.9322 16.7933 12.0817 16.7933 11.2311 17.4828 10.5417 18.3333 10.5417 19.1839 10.5417 19.8733 11.2311 19.8733 12.0817Z" fill="#E3E3E3" transform="matrix(1 0 0 1.0303 762 533)"/><path d="M23.8333 12.6683 23.8333 11.4217 23.6683 11.4217 22.3117 11 22 10.065 22.6783 8.59833 21.7983 7.71833 21.6333 7.71833 20.3683 8.36 19.525 8.01167 18.975 6.49 17.6733 6.49 17.6733 6.67333 17.2333 8.01167 16.3717 8.36 14.9417 7.68167 14.0617 8.56167 14.1533 8.72667 14.6667 10.0833 14.3733 11 12.8333 11.495 12.8333 12.8333 13.0167 12.8333 14.355 13.2733 14.6667 14.0983 13.9883 15.565 14.905 16.5 15.0883 16.4083 16.335 15.7667 17.1967 16.115 17.7467 17.6367 18.9933 17.6367 18.9933 17.4533 19.4333 16.115 20.295 15.7667 21.7433 16.445 22.6233 15.565 22.5317 15.4 22 14.08 22.3483 13.2183ZM18.3333 14.5017C16.9968 14.5017 15.9133 13.4182 15.9133 12.0817 15.9133 10.7451 16.9968 9.66167 18.3333 9.66167 19.6699 9.66167 20.7533 10.7451 20.7533 12.0817 20.7635 13.408 19.6965 14.4915 18.3701 14.5017 18.3579 14.5018 18.3456 14.5018 18.3333 14.5017Z" fill="#FFFFFF" transform="matrix(1 0 0 1.0303 762 533)"/></g></g></g><g clip-path="url(#clip13)"><g clip-path="url(#clip14)"><g clip-path="url(#clip15)"><path d="M33 19.3417C32.9407 15.651 30.2166 12.5467 26.565 12.0083 26.425 6.82512 22.1239 2.72881 16.94 2.84167 12.8433 2.79973 9.16731 5.35087 7.77333 9.20333 3.34656 9.78077 0.026666 13.5391-4.19617e-07 18.0033 0.139842 22.9987 4.29944 26.9368 9.295 26.8033L10.1017 26.8033 25.1533 26.8033C25.2876 26.8135 25.4224 26.8135 25.5567 26.8033 29.6457 26.7344 32.9412 23.4309 33 19.3417Z" fill="url(#fill16)" transform="matrix(1.0303 0 0 1 715 499)"/><path d="M10.9083 17.6917C10.9083 18.4106 10.3256 18.9933 9.60667 18.9933 8.88778 18.9933 8.305 18.4106 8.305 17.6917 8.305 16.9728 8.88778 16.39 9.60667 16.39 10.3256 16.39 10.9083 16.9728 10.9083 17.6917Z" fill="#E3E3E3" transform="matrix(1.0303 0 0 1 715 499)"/><path d="M14.19 18.1867 14.19 17.1417 14.0433 17.1417 12.925 16.775 12.6317 16.06 13.2 14.85 12.4667 14.1167 12.32 14.1167 11.275 14.6667 10.56 14.3733 10.1017 13.1083 9.05667 13.1083 9.05667 13.255 8.69 14.3733 7.92 14.6667 6.72833 14.0983 5.995 14.8317 5.995 14.9783 6.52667 16.0233 6.23333 16.7383 4.95 17.1967 4.95 18.3333 5.09667 18.3333 6.215 18.7 6.50833 19.415 5.94 20.625 6.67333 21.3583 6.82 21.3583 7.865 20.8267 8.58 21.12 9.03833 22.385 10.0833 22.385 10.0833 22.2383 10.45 21.12 11.165 20.8267 12.375 21.395 13.1083 20.6617 13.1083 20.515 12.5767 19.47 12.87 18.755ZM9.60667 19.7083C8.49289 19.7083 7.59 18.8054 7.59 17.6917 7.59 16.5779 8.49289 15.675 9.60667 15.675 10.7204 15.675 11.6233 16.5779 11.6233 17.6917 11.6335 18.7953 10.7471 19.6982 9.6435 19.7083 9.63122 19.7084 9.61894 19.7084 9.60667 19.7083Z" fill="#FFFFFF" transform="matrix(1.0303 0 0 1 715 499)"/><path d="M19.8733 12.0817C19.8733 12.9322 19.1839 13.6217 18.3333 13.6217 17.4828 13.6217 16.7933 12.9322 16.7933 12.0817 16.7933 11.2311 17.4828 10.5417 18.3333 10.5417 19.1839 10.5417 19.8733 11.2311 19.8733 12.0817Z" fill="#E3E3E3" transform="matrix(1.0303 0 0 1 715 499)"/><path d="M23.8333 12.6683 23.8333 11.4217 23.6683 11.4217 22.3117 11 22 10.065 22.6783 8.59833 21.7983 7.71833 21.6333 7.71833 20.3683 8.36 19.525 8.01167 18.975 6.49 17.6733 6.49 17.6733 6.67333 17.2333 8.01167 16.3717 8.36 14.9417 7.68167 14.0617 8.56167 14.1533 8.72667 14.6667 10.0833 14.3733 11 12.8333 11.495 12.8333 12.8333 13.0167 12.8333 14.355 13.2733 14.6667 14.0983 13.9883 15.565 14.905 16.5 15.0883 16.4083 16.335 15.7667 17.1967 16.115 17.7467 17.6367 18.9933 17.6367 18.9933 17.4533 19.4333 16.115 20.295 15.7667 21.7433 16.445 22.6233 15.565 22.5317 15.4 22 14.08 22.3483 13.2183ZM18.3333 14.5017C16.9968 14.5017 15.9133 13.4182 15.9133 12.0817 15.9133 10.7451 16.9968 9.66167 18.3333 9.66167 19.6699 9.66167 20.7533 10.7451 20.7533 12.0817 20.7635 13.408 19.6965 14.4915 18.3701 14.5017 18.3579 14.5018 18.3456 14.5018 18.3333 14.5017Z" fill="#FFFFFF" transform="matrix(1.0303 0 0 1 715 499)"/></g></g></g><g><g><g><path d="M750 550.342C749.941 546.651 747.217 543.547 743.565 543.008 743.425 537.825 739.124 533.729 733.94 533.842 729.843 533.8 726.167 536.351 724.773 540.203 720.347 540.781 717.027 544.539 717 549.003 717.14 553.999 721.299 557.937 726.295 557.803L727.102 557.803 742.153 557.803C742.288 557.813 742.422 557.813 742.557 557.803 746.646 557.734 749.941 554.431 750 550.342Z" fill="url(#fill17)"/><path d="M727.908 548.692C727.908 549.411 727.326 549.993 726.607 549.993 725.888 549.993 725.305 549.411 725.305 548.692 725.305 547.973 725.888 547.39 726.607 547.39 727.326 547.39 727.908 547.973 727.908 548.692Z" fill="#E3E3E3"/><path d="M731.19 549.187 731.19 548.142 731.043 548.142 729.925 547.775 729.632 547.06 730.2 545.85 729.467 545.117 729.32 545.117 728.275 545.667 727.56 545.373 727.102 544.108 726.057 544.108 726.057 544.255 725.69 545.373 724.92 545.667 723.728 545.098 722.995 545.832 722.995 545.978 723.527 547.023 723.233 547.738 721.95 548.197 721.95 549.333 722.097 549.333 723.215 549.7 723.508 550.415 722.94 551.625 723.673 552.358 723.82 552.358 724.865 551.827 725.58 552.12 726.038 553.385 727.083 553.385 727.083 553.238 727.45 552.12 728.165 551.827 729.375 552.395 730.108 551.662 730.108 551.515 729.577 550.47 729.87 549.755ZM726.607 550.708C725.493 550.708 724.59 549.805 724.59 548.692 724.59 547.578 725.493 546.675 726.607 546.675 727.72 546.675 728.623 547.578 728.623 548.692 728.633 549.795 727.747 550.698 726.643 550.708 726.631 550.708 726.619 550.708 726.607 550.708Z" fill="#FFFFFF"/><path d="M736.873 543.082C736.873 543.932 736.184 544.622 735.333 544.622 734.483 544.622 733.793 543.932 733.793 543.082 733.793 542.231 734.483 541.542 735.333 541.542 736.184 541.542 736.873 542.231 736.873 543.082Z" fill="#E3E3E3"/><path d="M740.833 543.668 740.833 542.422 740.668 542.422 739.312 542 739 541.065 739.678 539.598 738.798 538.718 738.633 538.718 737.368 539.36 736.525 539.012 735.975 537.49 734.673 537.49 734.673 537.673 734.233 539.012 733.372 539.36 731.942 538.682 731.062 539.562 731.153 539.727 731.667 541.083 731.373 542 729.833 542.495 729.833 543.833 730.017 543.833 731.355 544.273 731.667 545.098 730.988 546.565 731.905 547.5 732.088 547.408 733.335 546.767 734.197 547.115 734.747 548.637 735.993 548.637 735.993 548.453 736.433 547.115 737.295 546.767 738.743 547.445 739.623 546.565 739.532 546.4 739 545.08 739.348 544.218ZM735.333 545.502C733.997 545.502 732.913 544.418 732.913 543.082 732.913 541.745 733.997 540.662 735.333 540.662 736.67 540.662 737.753 541.745 737.753 543.082 737.763 544.408 736.697 545.492 735.37 545.502 735.358 545.502 735.346 545.502 735.333 545.502Z" fill="#FFFFFF"/></g></g></g><g clip-path="url(#clip18)"><g clip-path="url(#clip19)"><g clip-path="url(#clip20)"><path d="M389.538 23.0163C391.337 22.9108 393.168 23.3188 394.717 24.1833 396.108 24.9527 397.242 26.1083 397.964 27.4608 398.858 29.1351 399.173 31.0882 398.786 32.9297 398.464 34.5891 397.575 36.15 396.275 37.3187 395.096 38.4136 393.565 39.1593 391.944 39.4758 388.592 40.1688 384.866 38.8471 382.881 36.2178 381.726 34.7122 381.143 32.8374 381.23 30.9871 381.304 29.0525 382.091 27.1327 383.483 25.6941 385.015 24.0936 387.253 23.1306 389.538 23.0163Z" fill="url(#fill21)"/><path d="M377.063 31.2932C377.413 31.1779 377.867 31.1551 378.137 31.4347 378.444 31.7707 378.416 32.2332 378.492 32.6439 378.718 34.429 379.459 36.1412 380.544 37.6186 380.76 37.9105 380.932 38.279 380.803 38.6369 380.583 39.0863 380.065 39.2806 379.626 39.4935 375.777 41.3024 372.476 44.1366 370.273 47.6076 368.167 50.9035 366.969 54.7421 367.053 58.5947 367.043 59.0951 367.089 59.5972 367.058 60.0975 367.044 60.4511 366.87 60.8371 366.5 60.9796 365.87 61.2399 365.16 61.0755 364.5 61.1889 362.836 61.3595 361.207 61.8572 359.765 62.6557 359.413 62.8474 359.008 63.0664 358.587 62.9398 358.173 62.7753 358.076 62.3163 358.012 61.9443 357.608 58.6017 357.753 55.1914 358.554 51.9078 359.382 48.4879 360.803 45.1822 362.841 42.2363 366.221 37.3284 371.262 33.4362 377.063 31.2932Z" fill="url(#fill22)"/><path d="M402.225 31.3872C402.559 31.2087 402.961 31.3178 403.296 31.4374 409.208 33.7871 414.37 37.8517 417.675 43.0277 419.674 46.1566 421.022 49.6408 421.705 53.2269 422.223 55.9266 422.289 58.6914 422.054 61.421 421.983 61.8951 421.997 62.4499 421.617 62.8158 421.235 63.12 420.709 62.8967 420.343 62.6874 418.744 61.7772 416.9 61.2795 415.042 61.1449 414.501 61.1247 413.931 61.1898 413.418 60.9945 412.969 60.8239 412.815 60.3314 412.834 59.9164 413.061 56.9388 412.612 53.9137 411.493 51.1163 410.18 47.8011 407.969 44.8015 405.122 42.4798 403.637 41.2646 401.974 40.2445 400.217 39.4099 399.869 39.2419 399.49 39.0467 399.336 38.6906 399.18 38.2482 399.471 37.835 399.733 37.4911 400.877 35.9416 401.574 34.1125 401.746 32.2367 401.8 31.9184 401.91 31.564 402.225 31.3872Z" fill="url(#fill23)"/><path d="M364.945 63.7295C366.464 63.6221 368.013 63.8886 369.381 64.52 371.172 65.329 372.646 66.7422 373.451 68.4474 374.762 71.1199 374.387 74.4422 372.497 76.7919 371.27 78.352 369.391 79.4292 367.363 79.7924 365.658 80.0896 363.847 79.9647 362.25 79.3113 360.707 78.702 359.377 77.6449 358.445 76.3452 356.75 73.9769 356.514 70.7514 357.907 68.2081 359.216 65.7107 361.967 63.9141 364.945 63.7295Z" fill="url(#fill24)"/><path d="M413.311 63.7549C415.256 63.5255 417.291 63.8956 418.962 64.8691 421.458 66.2761 423.024 68.9785 422.999 71.6994 423.033 74.3683 421.582 77.0083 419.234 78.5234 417 79.9876 414.006 80.3499 411.444 79.4811 409.535 78.8523 407.893 77.5613 406.879 75.9231 406.178 74.8001 405.79 73.5144 405.705 72.2182 405.621 70.5139 406.13 68.7895 407.142 67.3701 408.523 65.4187 410.819 64.0346 413.311 63.7549Z" fill="url(#fill25)"/><path d="M376.294 76.6336C376.777 76.5149 377.215 76.8227 377.601 77.0522 380.794 79.0423 384.565 80.1714 388.383 80.4097 388.823 80.4158 389.26 80.4801 389.701 80.4792 394.061 80.4985 398.453 79.3931 402.129 77.1727 402.507 76.959 402.861 76.6723 403.309 76.6002 404.034 76.4973 404.404 77.1903 404.727 77.6687 405.657 79.022 406.918 80.1687 408.365 81.0332 408.765 81.2821 409.282 81.4835 409.457 81.9372 409.583 82.3962 409.182 82.7682 408.825 83.0162 406.378 84.7557 403.673 86.1891 400.787 87.181 397.718 88.2459 394.465 88.8351 391.196 88.9504 390.48 89.0073 389.76 89.0218 389.045 88.9591 382.775 88.7542 376.586 86.744 371.527 83.2686 371.151 82.9951 370.658 82.726 370.566 82.2547 370.474 81.7912 370.937 81.4967 371.298 81.283 372.93 80.3684 374.339 79.1003 375.325 77.5728 375.572 77.207 375.809 76.7532 376.294 76.6336Z" fill="url(#fill26)"/></g></g></g><text font-family="Calibri,Calibri_MSFontService,sans-serif" font-weight="700" font-size="37" transform="translate(443.714 68)">Nostria</text><text font-family="Calibri,Calibri_MSFontService,sans-serif" font-weight="700" font-size="37" transform="translate(565.294 68)">Architecture</text><text font-family="Calibri,Calibri_MSFontService,sans-serif" font-weight="700" font-size="37" transform="translate(765.894 68)">v1.0</text><text font-family="Calibri,Calibri_MSFontService,sans-serif" font-weight="400" font-size="15" transform="translate(286.572 247)">Nostria User</text><text fill="#767171" font-family="Calibri,Calibri_MSFontService,sans-serif" font-weight="400" font-size="15" transform="translate(248.651 264)">When signing up, users is</text><text fill="#767171" font-family="Calibri,Calibri_MSFontService,sans-serif" font-weight="400" font-size="15" transform="translate(266.985 282)">assigned user relay</text><text fill="#767171" font-family="Calibri,Calibri_MSFontService,sans-serif" font-weight="400" font-size="15" transform="translate(271.905 300)">and media server</text><text font-family="Calibri,Calibri_MSFontService,sans-serif" font-weight="400" font-size="15" transform="translate(655.886 185)">1. Discovery of users</text><text fill="#767171" font-family="Calibri,Calibri_MSFontService,sans-serif" font-weight="400" font-size="15" transform="translate(655.886 202)">When looking up a user on Nostria, a request</text><text fill="#767171" font-family="Calibri,Calibri_MSFontService,sans-serif" font-weight="400" font-size="15" transform="translate(927.719 202)">is</text><text fill="#767171" font-family="Calibri,Calibri_MSFontService,sans-serif" font-weight="400" font-size="15" transform="translate(940.053 202)">sent</text><text fill="#767171" font-family="Calibri,Calibri_MSFontService,sans-serif" font-weight="400" font-size="15" transform="translate(968.886 202)">to</text><text fill="#767171" font-family="Calibri,Calibri_MSFontService,sans-serif" font-weight="400" font-size="15" transform="translate(984.719 202)">the</text><text fill="#767171" font-family="Calibri,Calibri_MSFontService,sans-serif" font-weight="400" font-size="15" transform="translate(655.886 220)">Discovery Relay to find</text><text fill="#767171" font-family="Calibri,Calibri_MSFontService,sans-serif" font-weight="400" font-size="15" transform="translate(794.886 220)">the User Relays. The Discovery relay holds a</text><text fill="#767171" font-family="Calibri,Calibri_MSFontService,sans-serif" font-weight="400" font-size="15" transform="translate(655.886 238)">global list of all Nostr users, not just Nostria users.</text><text font-family="Calibri,Calibri_MSFontService,sans-serif" font-weight="400" font-size="15" transform="translate(655.441 387)">3. Interacting with users</text><text fill="#767171" font-family="Calibri,Calibri_MSFontService,sans-serif" font-weight="400" font-size="15" transform="translate(655.441 404)">When Nostria user’s interact with other users, commenting on</text><text fill="#767171" font-family="Calibri,Calibri_MSFontService,sans-serif" font-weight="400" font-size="15" transform="translate(655.441 422)">their posts, send direct messages or join group chats, Nostria will</text><text fill="#767171" font-family="Calibri,Calibri_MSFontService,sans-serif" font-weight="400" font-size="15" transform="translate(655.441 440)">publish events both to the receivers and the the current user’s</text><text fill="#767171" font-family="Calibri,Calibri_MSFontService,sans-serif" font-weight="400" font-size="15" transform="translate(655.441 457)">relays. This ensures the user always has a full set of their data,</text><text fill="#767171" font-family="Calibri,Calibri_MSFontService,sans-serif" font-weight="400" font-size="15" transform="translate(655.441 475)">accessible on their user relays.</text><g><g><g><path d="M706.78 559C709.316 559 711.372 556.944 711.372 554.408 711.404 554.23 711.404 554.048 711.372 553.87 709.535 539.398 701.333 527.618 685.5 527.618 669.667 527.618 661.243 537.593 659.628 553.902 659.354 556.44 661.19 558.721 663.728 558.995 663.744 558.997 663.76 558.998 663.777 559L706.78 559Z" fill="url(#fill27)"/><path d="M685.5 531.038C682.715 531.036 679.989 530.234 677.647 528.727L685.5 549.057 693.227 528.853C690.912 530.302 688.231 531.06 685.5 531.038Z" fill="#FFFFFF" fill-opacity="0.8"/><path d="M700.035 516.503C700.035 524.513 693.542 531.007 685.532 531.007 677.522 531.007 671.028 524.513 671.028 516.503 671.028 508.493 677.522 502 685.532 502 693.542 502 700.035 508.493 700.035 516.503Z" fill="url(#fill28)"/></g></g></g><path d="M647.5 597.5C647.5 590.32 653.32 584.5 660.5 584.5L799.5 584.5C806.68 584.5 812.5 590.32 812.5 597.5L812.5 649.5C812.5 656.68 806.68 662.5 799.5 662.5L660.5 662.5C653.32 662.5 647.5 656.68 647.5 649.5Z" stroke="#000000" stroke-width="1.33333" stroke-miterlimit="8" stroke-dasharray="5.33333 4" fill="#FFFFFF" fill-rule="evenodd"/><g clip-path="url(#clip29)"><g clip-path="url(#clip30)"><g clip-path="url(#clip31)"><path d="M33 19.3417C32.9407 15.651 30.2166 12.5467 26.565 12.0083 26.425 6.82512 22.1239 2.72881 16.94 2.84167 12.8433 2.79973 9.16731 5.35087 7.77333 9.20333 3.34656 9.78077 0.026666 13.5391-4.19617e-07 18.0033 0.139842 22.9987 4.29944 26.9368 9.295 26.8033L10.1017 26.8033 25.1533 26.8033C25.2876 26.8135 25.4224 26.8135 25.5567 26.8033 29.6457 26.7344 32.9412 23.4309 33 19.3417Z" fill="url(#fill32)" transform="matrix(1 0 0 1.0303 764 590)"/><path d="M10.9083 17.6917C10.9083 18.4106 10.3256 18.9933 9.60667 18.9933 8.88778 18.9933 8.305 18.4106 8.305 17.6917 8.305 16.9728 8.88778 16.39 9.60667 16.39 10.3256 16.39 10.9083 16.9728 10.9083 17.6917Z" fill="#E3E3E3" transform="matrix(1 0 0 1.0303 764 590)"/><path d="M14.19 18.1867 14.19 17.1417 14.0433 17.1417 12.925 16.775 12.6317 16.06 13.2 14.85 12.4667 14.1167 12.32 14.1167 11.275 14.6667 10.56 14.3733 10.1017 13.1083 9.05667 13.1083 9.05667 13.255 8.69 14.3733 7.92 14.6667 6.72833 14.0983 5.995 14.8317 5.995 14.9783 6.52667 16.0233 6.23333 16.7383 4.95 17.1967 4.95 18.3333 5.09667 18.3333 6.215 18.7 6.50833 19.415 5.94 20.625 6.67333 21.3583 6.82 21.3583 7.865 20.8267 8.58 21.12 9.03833 22.385 10.0833 22.385 10.0833 22.2383 10.45 21.12 11.165 20.8267 12.375 21.395 13.1083 20.6617 13.1083 20.515 12.5767 19.47 12.87 18.755ZM9.60667 19.7083C8.49289 19.7083 7.59 18.8054 7.59 17.6917 7.59 16.5779 8.49289 15.675 9.60667 15.675 10.7204 15.675 11.6233 16.5779 11.6233 17.6917 11.6335 18.7953 10.7471 19.6982 9.6435 19.7083 9.63122 19.7084 9.61894 19.7084 9.60667 19.7083Z" fill="#FFFFFF" transform="matrix(1 0 0 1.0303 764 590)"/><path d="M19.8733 12.0817C19.8733 12.9322 19.1839 13.6217 18.3333 13.6217 17.4828 13.6217 16.7933 12.9322 16.7933 12.0817 16.7933 11.2311 17.4828 10.5417 18.3333 10.5417 19.1839 10.5417 19.8733 11.2311 19.8733 12.0817Z" fill="#E3E3E3" transform="matrix(1 0 0 1.0303 764 590)"/><path d="M23.8333 12.6683 23.8333 11.4217 23.6683 11.4217 22.3117 11 22 10.065 22.6783 8.59833 21.7983 7.71833 21.6333 7.71833 20.3683 8.36 19.525 8.01167 18.975 6.49 17.6733 6.49 17.6733 6.67333 17.2333 8.01167 16.3717 8.36 14.9417 7.68167 14.0617 8.56167 14.1533 8.72667 14.6667 10.0833 14.3733 11 12.8333 11.495 12.8333 12.8333 13.0167 12.8333 14.355 13.2733 14.6667 14.0983 13.9883 15.565 14.905 16.5 15.0883 16.4083 16.335 15.7667 17.1967 16.115 17.7467 17.6367 18.9933 17.6367 18.9933 17.4533 19.4333 16.115 20.295 15.7667 21.7433 16.445 22.6233 15.565 22.5317 15.4 22 14.08 22.3483 13.2183ZM18.3333 14.5017C16.9968 14.5017 15.9133 13.4182 15.9133 12.0817 15.9133 10.7451 16.9968 9.66167 18.3333 9.66167 19.6699 9.66167 20.7533 10.7451 20.7533 12.0817 20.7635 13.408 19.6965 14.4915 18.3701 14.5017 18.3579 14.5018 18.3456 14.5018 18.3333 14.5017Z" fill="#FFFFFF" transform="matrix(1 0 0 1.0303 764 590)"/></g></g></g><g><g><g><path d="M797 642.342C796.941 638.651 794.217 635.547 790.565 635.008 790.425 629.825 786.124 625.729 780.94 625.842 776.843 625.8 773.167 628.351 771.773 632.203 767.347 632.781 764.027 636.539 764 641.003 764.14 645.999 768.299 649.937 773.295 649.803L774.102 649.803 789.153 649.803C789.288 649.813 789.422 649.813 789.557 649.803 793.646 649.734 796.941 646.431 797 642.342Z" fill="url(#fill33)"/><path d="M774.908 640.692C774.908 641.411 774.326 641.993 773.607 641.993 772.888 641.993 772.305 641.411 772.305 640.692 772.305 639.973 772.888 639.39 773.607 639.39 774.326 639.39 774.908 639.973 774.908 640.692Z" fill="#E3E3E3"/><path d="M778.19 641.187 778.19 640.142 778.043 640.142 776.925 639.775 776.632 639.06 777.2 637.85 776.467 637.117 776.32 637.117 775.275 637.667 774.56 637.373 774.102 636.108 773.057 636.108 773.057 636.255 772.69 637.373 771.92 637.667 770.728 637.098 769.995 637.832 769.995 637.978 770.527 639.023 770.233 639.738 768.95 640.197 768.95 641.333 769.097 641.333 770.215 641.7 770.508 642.415 769.94 643.625 770.673 644.358 770.82 644.358 771.865 643.827 772.58 644.12 773.038 645.385 774.083 645.385 774.083 645.238 774.45 644.12 775.165 643.827 776.375 644.395 777.108 643.662 777.108 643.515 776.577 642.47 776.87 641.755ZM773.607 642.708C772.493 642.708 771.59 641.805 771.59 640.692 771.59 639.578 772.493 638.675 773.607 638.675 774.72 638.675 775.623 639.578 775.623 640.692 775.633 641.795 774.747 642.698 773.643 642.708 773.631 642.708 773.619 642.708 773.607 642.708Z" fill="#FFFFFF"/><path d="M783.873 635.082C783.873 635.932 783.184 636.622 782.333 636.622 781.483 636.622 780.793 635.932 780.793 635.082 780.793 634.231 781.483 633.542 782.333 633.542 783.184 633.542 783.873 634.231 783.873 635.082Z" fill="#E3E3E3"/><path d="M787.833 635.668 787.833 634.422 787.668 634.422 786.312 634 786 633.065 786.678 631.598 785.798 630.718 785.633 630.718 784.368 631.36 783.525 631.012 782.975 629.49 781.673 629.49 781.673 629.673 781.233 631.012 780.372 631.36 778.942 630.682 778.062 631.562 778.153 631.727 778.667 633.083 778.373 634 776.833 634.495 776.833 635.833 777.017 635.833 778.355 636.273 778.667 637.098 777.988 638.565 778.905 639.5 779.088 639.408 780.335 638.767 781.197 639.115 781.747 640.637 782.993 640.637 782.993 640.453 783.433 639.115 784.295 638.767 785.743 639.445 786.623 638.565 786.532 638.4 786 637.08 786.348 636.218ZM782.333 637.502C780.997 637.502 779.913 636.418 779.913 635.082 779.913 633.745 780.997 632.662 782.333 632.662 783.67 632.662 784.753 633.745 784.753 635.082 784.763 636.408 783.697 637.492 782.37 637.502 782.358 637.502 782.346 637.502 782.333 637.502Z" fill="#FFFFFF"/></g></g></g><g clip-path="url(#clip34)"><g clip-path="url(#clip35)"><g clip-path="url(#clip36)"><path d="M33 19.3417C32.9407 15.651 30.2166 12.5467 26.565 12.0083 26.425 6.82512 22.1239 2.72881 16.94 2.84167 12.8433 2.79973 9.16731 5.35087 7.77333 9.20333 3.34656 9.78077 0.026666 13.5391-4.19617e-07 18.0033 0.139842 22.9987 4.29944 26.9368 9.295 26.8033L10.1017 26.8033 25.1533 26.8033C25.2876 26.8135 25.4224 26.8135 25.5567 26.8033 29.6457 26.7344 32.9412 23.4309 33 19.3417Z" fill="url(#fill37)" transform="matrix(1 0 0 1.0303 717 588)"/><path d="M10.9083 17.6917C10.9083 18.4106 10.3256 18.9933 9.60667 18.9933 8.88778 18.9933 8.305 18.4106 8.305 17.6917 8.305 16.9728 8.88778 16.39 9.60667 16.39 10.3256 16.39 10.9083 16.9728 10.9083 17.6917Z" fill="#E3E3E3" transform="matrix(1 0 0 1.0303 717 588)"/><path d="M14.19 18.1867 14.19 17.1417 14.0433 17.1417 12.925 16.775 12.6317 16.06 13.2 14.85 12.4667 14.1167 12.32 14.1167 11.275 14.6667 10.56 14.3733 10.1017 13.1083 9.05667 13.1083 9.05667 13.255 8.69 14.3733 7.92 14.6667 6.72833 14.0983 5.995 14.8317 5.995 14.9783 6.52667 16.0233 6.23333 16.7383 4.95 17.1967 4.95 18.3333 5.09667 18.3333 6.215 18.7 6.50833 19.415 5.94 20.625 6.67333 21.3583 6.82 21.3583 7.865 20.8267 8.58 21.12 9.03833 22.385 10.0833 22.385 10.0833 22.2383 10.45 21.12 11.165 20.8267 12.375 21.395 13.1083 20.6617 13.1083 20.515 12.5767 19.47 12.87 18.755ZM9.60667 19.7083C8.49289 19.7083 7.59 18.8054 7.59 17.6917 7.59 16.5779 8.49289 15.675 9.60667 15.675 10.7204 15.675 11.6233 16.5779 11.6233 17.6917 11.6335 18.7953 10.7471 19.6982 9.6435 19.7083 9.63122 19.7084 9.61894 19.7084 9.60667 19.7083Z" fill="#FFFFFF" transform="matrix(1 0 0 1.0303 717 588)"/><path d="M19.8733 12.0817C19.8733 12.9322 19.1839 13.6217 18.3333 13.6217 17.4828 13.6217 16.7933 12.9322 16.7933 12.0817 16.7933 11.2311 17.4828 10.5417 18.3333 10.5417 19.1839 10.5417 19.8733 11.2311 19.8733 12.0817Z" fill="#E3E3E3" transform="matrix(1 0 0 1.0303 717 588)"/><path d="M23.8333 12.6683 23.8333 11.4217 23.6683 11.4217 22.3117 11 22 10.065 22.6783 8.59833 21.7983 7.71833 21.6333 7.71833 20.3683 8.36 19.525 8.01167 18.975 6.49 17.6733 6.49 17.6733 6.67333 17.2333 8.01167 16.3717 8.36 14.9417 7.68167 14.0617 8.56167 14.1533 8.72667 14.6667 10.0833 14.3733 11 12.8333 11.495 12.8333 12.8333 13.0167 12.8333 14.355 13.2733 14.6667 14.0983 13.9883 15.565 14.905 16.5 15.0883 16.4083 16.335 15.7667 17.1967 16.115 17.7467 17.6367 18.9933 17.6367 18.9933 17.4533 19.4333 16.115 20.295 15.7667 21.7433 16.445 22.6233 15.565 22.5317 15.4 22 14.08 22.3483 13.2183ZM18.3333 14.5017C16.9968 14.5017 15.9133 13.4182 15.9133 12.0817 15.9133 10.7451 16.9968 9.66167 18.3333 9.66167 19.6699 9.66167 20.7533 10.7451 20.7533 12.0817 20.7635 13.408 19.6965 14.4915 18.3701 14.5017 18.3579 14.5018 18.3456 14.5018 18.3333 14.5017Z" fill="#FFFFFF" transform="matrix(1 0 0 1.0303 717 588)"/></g></g></g><g clip-path="url(#clip38)"><g clip-path="url(#clip39)"><g clip-path="url(#clip40)"><path d="M33 19.3417C32.9407 15.651 30.2166 12.5467 26.565 12.0083 26.425 6.82512 22.1239 2.72881 16.94 2.84167 12.8433 2.79973 9.16731 5.35087 7.77333 9.20333 3.34656 9.78077 0.026666 13.5391-4.19617e-07 18.0033 0.139842 22.9987 4.29944 26.9368 9.295 26.8033L10.1017 26.8033 25.1533 26.8033C25.2876 26.8135 25.4224 26.8135 25.5567 26.8033 29.6457 26.7344 32.9412 23.4309 33 19.3417Z" fill="url(#fill41)" transform="matrix(1 0 0 1.0303 719 620)"/><path d="M10.9083 17.6917C10.9083 18.4106 10.3256 18.9933 9.60667 18.9933 8.88778 18.9933 8.305 18.4106 8.305 17.6917 8.305 16.9728 8.88778 16.39 9.60667 16.39 10.3256 16.39 10.9083 16.9728 10.9083 17.6917Z" fill="#E3E3E3" transform="matrix(1 0 0 1.0303 719 620)"/><path d="M14.19 18.1867 14.19 17.1417 14.0433 17.1417 12.925 16.775 12.6317 16.06 13.2 14.85 12.4667 14.1167 12.32 14.1167 11.275 14.6667 10.56 14.3733 10.1017 13.1083 9.05667 13.1083 9.05667 13.255 8.69 14.3733 7.92 14.6667 6.72833 14.0983 5.995 14.8317 5.995 14.9783 6.52667 16.0233 6.23333 16.7383 4.95 17.1967 4.95 18.3333 5.09667 18.3333 6.215 18.7 6.50833 19.415 5.94 20.625 6.67333 21.3583 6.82 21.3583 7.865 20.8267 8.58 21.12 9.03833 22.385 10.0833 22.385 10.0833 22.2383 10.45 21.12 11.165 20.8267 12.375 21.395 13.1083 20.6617 13.1083 20.515 12.5767 19.47 12.87 18.755ZM9.60667 19.7083C8.49289 19.7083 7.59 18.8054 7.59 17.6917 7.59 16.5779 8.49289 15.675 9.60667 15.675 10.7204 15.675 11.6233 16.5779 11.6233 17.6917 11.6335 18.7953 10.7471 19.6982 9.6435 19.7083 9.63122 19.7084 9.61894 19.7084 9.60667 19.7083Z" fill="#FFFFFF" transform="matrix(1 0 0 1.0303 719 620)"/><path d="M19.8733 12.0817C19.8733 12.9322 19.1839 13.6217 18.3333 13.6217 17.4828 13.6217 16.7933 12.9322 16.7933 12.0817 16.7933 11.2311 17.4828 10.5417 18.3333 10.5417 19.1839 10.5417 19.8733 11.2311 19.8733 12.0817Z" fill="#E3E3E3" transform="matrix(1 0 0 1.0303 719 620)"/><path d="M23.8333 12.6683 23.8333 11.4217 23.6683 11.4217 22.3117 11 22 10.065 22.6783 8.59833 21.7983 7.71833 21.6333 7.71833 20.3683 8.36 19.525 8.01167 18.975 6.49 17.6733 6.49 17.6733 6.67333 17.2333 8.01167 16.3717 8.36 14.9417 7.68167 14.0617 8.56167 14.1533 8.72667 14.6667 10.0833 14.3733 11 12.8333 11.495 12.8333 12.8333 13.0167 12.8333 14.355 13.2733 14.6667 14.0983 13.9883 15.565 14.905 16.5 15.0883 16.4083 16.335 15.7667 17.1967 16.115 17.7467 17.6367 18.9933 17.6367 18.9933 17.4533 19.4333 16.115 20.295 15.7667 21.7433 16.445 22.6233 15.565 22.5317 15.4 22 14.08 22.3483 13.2183ZM18.3333 14.5017C16.9968 14.5017 15.9133 13.4182 15.9133 12.0817 15.9133 10.7451 16.9968 9.66167 18.3333 9.66167 19.6699 9.66167 20.7533 10.7451 20.7533 12.0817 20.7635 13.408 19.6965 14.4915 18.3701 14.5017 18.3579 14.5018 18.3456 14.5018 18.3333 14.5017Z" fill="#FFFFFF" transform="matrix(1 0 0 1.0303 719 620)"/></g></g></g><g><g><g><path d="M707.78 649C710.316 649 712.372 646.944 712.372 644.408 712.404 644.23 712.404 644.048 712.372 643.87 710.535 629.398 702.333 617.618 686.5 617.618 670.667 617.618 662.243 627.593 660.628 643.902 660.354 646.44 662.19 648.721 664.728 648.995 664.744 648.997 664.76 648.998 664.777 649L707.78 649Z" fill="url(#fill42)"/><path d="M686.5 621.038C683.715 621.036 680.989 620.234 678.647 618.727L686.5 639.057 694.227 618.853C691.912 620.302 689.231 621.06 686.5 621.038Z" fill="#FFFFFF" fill-opacity="0.8"/><path d="M701.035 606.503C701.035 614.513 694.542 621.007 686.532 621.007 678.522 621.007 672.028 614.513 672.028 606.503 672.028 598.493 678.522 592 686.532 592 694.542 592 701.035 598.493 701.035 606.503Z" fill="url(#fill43)"/></g></g></g><path d="M639.381 534.359 323.167 534.359 323.167 488.167 323.833 488.167 323.833 534.025 323.5 533.692 639.381 533.692ZM638.047 530.025 646.047 534.025 638.047 538.025ZM319.5 489.5 323.5 481.5 327.5 489.5Z" fill="#4472C4"/><path d="M641.036 623.812 323.167 623.812 323.167 488.167 323.833 488.167 323.833 623.479 323.5 623.145 641.036 623.145ZM639.702 619.479 647.702 623.479 639.702 627.479ZM319.5 489.5 323.5 481.5 327.5 489.5Z" fill="#4472C4"/><path d="M6.66667-0.333333 47.0974-0.333333 47.0974 125.785 46.7641 125.452 86.8614 125.452 86.8614 126.119 46.4308 126.119 46.4308 0 46.7641 0.333333 6.66667 0.333333ZM8 4 0 0 8-4ZM85.5281 121.785 93.5281 125.785 85.5281 129.785Z" fill="#4472C4" transform="matrix(1 0 0 -1 445.5 313.285)"/><text font-family="Calibri,Calibri_MSFontService,sans-serif" font-weight="400" font-size="15" transform="translate(655.658 268)">2. User</text><text font-family="Calibri,Calibri_MSFontService,sans-serif" font-weight="400" font-size="15" transform="translate(700.991 268)">Profile</text><text font-family="Calibri,Calibri_MSFontService,sans-serif" font-weight="400" font-size="15" transform="translate(739.825 268)">s</text><text fill="#767171" font-family="Calibri,Calibri_MSFontService,sans-serif" font-weight="400" font-size="15" transform="translate(655.658 285)">After discovery of a user’s relays on the Discovery Relay, Nostria</text><text fill="#767171" font-family="Calibri,Calibri_MSFontService,sans-serif" font-weight="400" font-size="15" transform="translate(655.658 303)">will connect to that user’s relays to retrieve their updated profile</text><text fill="#767171" font-family="Calibri,Calibri_MSFontService,sans-serif" font-weight="400" font-size="15" transform="translate(655.658 321)">and other information that is relevant. User’s does not need to</text><text fill="#767171" font-family="Calibri,Calibri_MSFontService,sans-serif" font-weight="400" font-size="15" transform="translate(655.658 338)">utilize a large centralized relay to be discovered, they only need a</text><text fill="#767171" font-family="Calibri,Calibri_MSFontService,sans-serif" font-weight="400" font-size="15" transform="translate(655.658 356)">small set of reliable relays and media servers.</text></g></svg>