<svg width="1000" height="1000" viewBox="0 0 1000 1000" fill="none" xmlns="http://www.w3.org/2000/svg">
<path d="M492.995 0.247352C520.263 -1.35154 548.001 4.83084 571.471 17.9284C592.551 29.587 609.734 47.0948 620.672 67.5873C634.214 92.9564 638.979 122.549 633.119 150.45C628.24 175.592 614.769 199.243 595.069 216.95C577.217 233.539 554.017 244.838 529.452 249.634C478.671 260.134 422.215 240.108 392.131 200.269C374.635 177.458 365.802 149.051 367.125 121.017C368.248 91.7039 380.168 62.6174 401.263 40.8192C424.477 16.5694 458.373 1.97948 492.995 0.247352Z" fill="url(#paint0_linear_422_19)"/>
<path d="M303.983 125.654C309.289 123.908 316.173 123.562 320.256 127.799C324.907 132.889 324.48 139.897 325.633 146.12C329.061 173.167 340.284 199.109 356.727 221.494C359.998 225.917 362.601 231.5 360.653 236.923C357.324 243.732 349.472 246.676 342.815 249.901C284.496 277.309 234.483 320.252 201.113 372.842C169.194 422.781 151.044 480.941 152.324 539.313C152.167 546.895 152.864 554.503 152.395 562.084C152.182 567.441 149.55 573.29 143.946 575.448C134.387 579.392 123.634 576.901 113.634 578.619C88.4285 581.204 63.7494 588.746 41.9009 600.844C36.5668 603.749 30.4219 607.066 24.0494 605.148C17.7765 602.656 16.2972 595.701 15.3299 590.065C9.2135 539.42 11.404 487.749 23.5516 437.997C36.0832 386.18 57.6187 336.094 88.4996 291.459C139.707 217.097 216.091 158.125 303.983 125.654Z" fill="url(#paint1_linear_422_19)"/>
<path d="M685.222 127.079C690.286 124.375 696.374 126.027 701.452 127.839C791.037 163.441 869.242 225.025 919.325 303.45C949.609 350.857 970.035 403.648 980.376 457.983C988.228 498.888 989.224 540.779 985.667 582.137C984.586 589.319 984.8 597.726 979.039 603.269C973.264 607.879 965.284 604.495 959.737 601.324C935.513 587.533 907.576 579.992 879.426 577.953C871.233 577.647 862.585 578.633 854.818 575.675C848.019 573.09 845.686 565.628 845.971 559.339C849.413 514.224 842.6 468.389 825.659 426.005C805.759 375.774 772.261 330.325 729.118 295.149C706.616 276.736 681.424 261.28 654.797 248.635C649.534 246.09 643.787 243.132 641.454 237.736C639.093 231.034 643.503 224.772 647.471 219.562C664.796 196.085 675.365 168.371 677.968 139.95C678.793 135.127 680.457 129.758 685.222 127.079Z" fill="url(#paint2_linear_422_19)"/>
<path d="M120.376 617.113C143.391 615.487 166.861 619.524 187.586 629.091C214.726 641.349 237.058 662.761 249.262 688.597C269.12 729.089 263.444 779.427 234.796 815.029C216.205 838.666 187.742 854.988 157.018 860.491C131.187 864.994 103.748 863.102 79.5383 853.202C56.1678 843.969 36.0121 827.953 21.9016 808.26C-3.78747 772.378 -7.35777 723.506 13.7368 684.972C33.5797 647.132 75.2568 619.911 120.376 617.113Z" fill="url(#paint3_linear_422_19)"/>
<path d="M853.197 617.499C882.669 614.022 913.493 619.631 938.813 634.381C976.635 655.699 1000.36 696.644 999.991 737.869C1000.5 778.308 978.513 818.307 942.938 841.264C909.084 863.449 863.723 868.938 824.905 855.774C795.987 846.247 771.108 826.687 755.746 801.865C745.121 784.85 739.246 765.37 737.952 745.73C736.686 719.908 744.395 693.78 759.729 672.275C780.653 642.708 815.445 621.736 853.197 617.499Z" fill="url(#paint4_linear_422_19)"/>
<path d="M292.334 812.63C299.645 810.832 306.288 815.495 312.134 818.973C360.511 849.125 417.649 866.233 475.5 869.844C482.171 869.937 488.785 870.91 495.47 870.897C561.528 871.19 628.069 854.441 683.771 820.798C689.504 817.56 694.866 813.217 701.651 812.124C712.632 810.565 718.237 821.065 723.13 828.313C737.226 848.819 756.329 866.193 778.263 879.291C784.323 883.062 792.146 886.113 794.806 892.988C796.712 899.943 790.638 905.579 785.233 909.337C748.15 935.692 707.17 957.41 663.445 972.44C616.946 988.575 567.659 997.502 518.115 999.248C507.277 1000.11 496.367 1000.33 485.528 999.381C390.524 996.276 296.757 965.818 220.103 913.161C214.413 909.017 206.945 904.94 205.551 897.798C204.157 890.776 211.17 886.313 216.632 883.075C241.368 869.218 262.719 850.005 277.654 826.861C281.395 821.318 284.98 814.443 292.334 812.63Z" fill="url(#paint5_linear_422_19)"/>
<defs>
<linearGradient id="paint0_linear_422_19" x1="61.8756" y1="368.245" x2="938.503" y2="677.2" gradientUnits="userSpaceOnUse">
<stop stop-color="#8E44AD"/>
<stop offset="1" stop-color="#3498DB"/>
</linearGradient>
<linearGradient id="paint1_linear_422_19" x1="61.8756" y1="368.245" x2="938.503" y2="677.2" gradientUnits="userSpaceOnUse">
<stop stop-color="#8E44AD"/>
<stop offset="1" stop-color="#3498DB"/>
</linearGradient>
<linearGradient id="paint2_linear_422_19" x1="61.8756" y1="368.245" x2="938.503" y2="677.2" gradientUnits="userSpaceOnUse">
<stop stop-color="#8E44AD"/>
<stop offset="1" stop-color="#3498DB"/>
</linearGradient>
<linearGradient id="paint3_linear_422_19" x1="61.8756" y1="368.245" x2="938.503" y2="677.2" gradientUnits="userSpaceOnUse">
<stop stop-color="#8E44AD"/>
<stop offset="1" stop-color="#3498DB"/>
</linearGradient>
<linearGradient id="paint4_linear_422_19" x1="61.8756" y1="368.245" x2="938.503" y2="677.2" gradientUnits="userSpaceOnUse">
<stop stop-color="#8E44AD"/>
<stop offset="1" stop-color="#3498DB"/>
</linearGradient>
<linearGradient id="paint5_linear_422_19" x1="61.8756" y1="368.245" x2="938.503" y2="677.2" gradientUnits="userSpaceOnUse">
<stop stop-color="#8E44AD"/>
<stop offset="1" stop-color="#3498DB"/>
</linearGradient>
</defs>
</svg>
