<svg xmlns="http://www.w3.org/2000/svg"
viewBox = "0 0 1024 1024"
width="1024"
height="1024">
<g fill="None" fill-opacity="0.0" stroke="#F57A00" stroke-opacity="1.00" stroke-width="0.3"><path d="
M 0.00 1024.00 
L 1024.00 1024.00
L 1024.00 0.00
L 0.00 0.00
L 0.00 1024.00
M 543.00 86.00 
C 578.65 89.45 621.35 97.91 654.22 109.78 C 687.10 121.64 716.70 135.09 744.75 154.25 C 772.79 173.42 795.30 189.94 818.75 215.25 C 842.20 240.56 859.58 263.24 876.77 293.23 C 893.96 323.22 907.44 352.70 917.77 387.23 C 928.11 421.76 934.38 466.92 935.00 505.00 C 935.63 543.08 929.15 589.51 919.07 624.07 C 908.99 658.63 896.12 689.95 878.74 719.74 C 861.36 749.54 844.46 771.59 820.75 796.75 C 797.04 821.92 775.66 839.21 747.30 858.30 C 718.95 877.40 691.26 892.53 657.78 904.78 C 624.29 917.02 584.66 926.11 547.00 929.00 C 509.34 931.89 457.21 929.72 421.99 921.01 C 386.77 912.30 352.77 902.29 321.98 886.03 C 291.18 869.76 266.57 853.67 240.30 831.70 C 214.03 809.72 194.80 789.98 174.08 762.92 C 153.37 735.86 138.42 710.37 123.69 678.31 C 108.97 646.24 99.17 608.99 93.67 572.33 C 88.17 535.67 86.60 484.17 92.33 447.33 C 98.06 410.49 108.23 374.55 121.92 341.92 C 135.62 309.29 150.17 283.16 170.75 255.75 C 191.33 228.35 210.41 208.02 236.70 185.70 C 262.98 163.38 285.74 146.73 317.23 131.23 C 348.72 115.73 380.26 102.76 416.67 95.67 C 453.08 88.58 503.03 82.13 543.00 86.00 Z"/>
</g>
<g fill="None" fill-opacity="0.0" stroke="#FDA100" stroke-opacity="1.00" stroke-width="0.3"><path d="
M 543.00 86.00 
C 503.03 82.13 453.08 88.58 416.67 95.67 C 380.26 102.76 348.72 115.73 317.23 131.23 C 285.74 146.73 262.98 163.38 236.70 185.70 C 210.41 208.02 191.33 228.35 170.75 255.75 C 150.17 283.16 135.62 309.29 121.92 341.92 C 108.23 374.55 98.06 410.49 92.33 447.33 C 86.60 484.17 88.17 535.67 93.67 572.33 C 99.17 608.99 108.97 646.24 123.69 678.31 C 138.42 710.37 153.37 735.86 174.08 762.92 C 194.80 789.98 214.03 809.72 240.30 831.70 C 266.57 853.67 291.18 869.76 321.98 886.03 C 352.77 902.29 386.77 912.30 421.99 921.01 C 457.21 929.72 509.34 931.89 547.00 929.00 C 584.66 926.11 624.29 917.02 657.78 904.78 C 691.26 892.53 718.95 877.40 747.30 858.30 C 775.66 839.21 797.04 821.92 820.75 796.75 C 844.46 771.59 861.36 749.54 878.74 719.74 C 896.12 689.95 908.99 658.63 919.07 624.07 C 929.15 589.51 935.63 543.08 935.00 505.00 C 934.38 466.92 928.11 421.76 917.77 387.23 C 907.44 352.70 893.96 323.22 876.77 293.23 C 859.58 263.24 842.20 240.56 818.75 215.25 C 795.30 189.94 772.79 173.42 744.75 154.25 C 716.70 135.09 687.10 121.64 654.22 109.78 C 621.35 97.91 578.65 89.45 543.00 86.00
M 532.00 158.00 
C 568.66 161.55 611.82 169.72 645.08 183.92 C 678.33 198.13 705.56 212.97 733.08 235.92 C 760.60 258.86 779.70 279.56 800.30 308.70 C 820.91 337.83 834.18 367.90 846.33 402.67 C 858.47 437.45 863.83 488.08 862.00 527.00 C 860.17 565.92 850.68 606.45 836.08 640.08 C 821.48 673.71 807.13 700.49 783.75 727.75 C 760.38 755.02 740.14 774.78 710.77 794.77 C 681.40 814.76 651.75 829.14 616.78 840.78 C 581.81 852.42 530.71 857.84 492.00 856.00 C 453.29 854.16 412.84 844.04 378.92 830.08 C 345.01 816.11 319.10 800.13 291.25 777.75 C 263.40 755.37 243.74 734.86 223.23 705.77 C 202.72 676.68 188.57 646.83 177.07 611.93 C 165.58 577.03 159.67 525.73 162.00 487.00 C 164.33 448.27 173.36 407.51 187.92 373.92 C 202.49 340.33 217.31 314.12 240.30 286.30 C 263.30 258.48 284.33 239.70 313.70 219.70 C 343.06 199.69 371.94 183.52 407.68 173.68 C 443.41 163.83 492.08 154.14 532.00 158.00 Z"/>
</g>
<g fill="None" fill-opacity="0.0" stroke="#FEBE00" stroke-opacity="1.00" stroke-width="0.3"><path d="
M 532.00 158.00 
C 492.08 154.14 443.41 163.83 407.68 173.68 C 371.94 183.52 343.06 199.69 313.70 219.70 C 284.33 239.70 263.30 258.48 240.30 286.30 C 217.31 314.12 202.49 340.33 187.92 373.92 C 173.36 407.51 164.33 448.27 162.00 487.00 C 159.67 525.73 165.58 577.03 177.07 611.93 C 188.57 646.83 202.72 676.68 223.23 705.77 C 243.74 734.86 263.40 755.37 291.25 777.75 C 319.10 800.13 345.01 816.11 378.92 830.08 C 412.84 844.04 453.29 854.16 492.00 856.00 C 530.71 857.84 581.81 852.42 616.78 840.78 C 651.75 829.14 681.40 814.76 710.77 794.77 C 740.14 774.78 760.38 755.02 783.75 727.75 C 807.13 700.49 821.48 673.71 836.08 640.08 C 850.68 606.45 860.17 565.92 862.00 527.00 C 863.83 488.08 858.47 437.45 846.33 402.67 C 834.18 367.90 820.91 337.83 800.30 308.70 C 779.70 279.56 760.60 258.86 733.08 235.92 C 705.56 212.97 678.33 198.13 645.08 183.92 C 611.82 169.72 568.66 161.55 532.00 158.00
M 528.00 230.00 
C 575.61 234.61 627.22 249.43 666.25 276.75 C 705.28 304.07 732.06 330.23 755.77 372.23 C 779.48 414.23 792.04 473.82 789.00 523.00 C 785.96 572.18 769.92 621.87 742.08 661.08 C 714.23 700.28 686.82 725.50 645.77 749.77 C 604.72 774.04 545.52 786.88 496.00 784.00 C 446.48 781.12 398.02 763.85 358.25 736.75 C 318.48 709.65 293.07 682.32 269.08 640.92 C 245.08 599.53 231.58 541.24 234.00 492.00 C 236.42 442.76 253.78 393.24 280.75 353.75 C 307.73 314.27 334.90 288.06 377.08 265.08 C 419.25 242.09 476.70 225.04 528.00 230.00 Z"/>
</g>
<g fill="None" fill-opacity="0.0" stroke="#FECD02" stroke-opacity="1.00" stroke-width="0.3"><path d="
M 528.00 230.00 
C 476.70 225.04 419.25 242.09 377.08 265.08 C 334.90 288.06 307.73 314.27 280.75 353.75 C 253.78 393.24 236.42 442.76 234.00 492.00 C 231.58 541.24 245.08 599.53 269.08 640.92 C 293.07 682.32 318.48 709.65 358.25 736.75 C 398.02 763.85 446.48 781.12 496.00 784.00 C 545.52 786.88 604.72 774.04 645.77 749.77 C 686.82 725.50 714.23 700.28 742.08 661.08 C 769.92 621.87 785.96 572.18 789.00 523.00 C 792.04 473.82 779.48 414.23 755.77 372.23 C 732.06 330.23 705.28 304.07 666.25 276.75 C 627.22 249.43 575.61 234.61 528.00 230.00
M 524.00 303.00 
C 577.56 308.18 625.46 326.55 662.75 367.25 C 700.04 407.95 719.97 462.59 716.00 518.00 C 712.03 573.41 689.45 618.10 650.25 656.25 C 611.04 694.40 554.79 712.95 500.00 710.00 C 445.21 707.05 399.61 683.93 362.25 644.75 C 324.89 605.57 305.44 548.94 308.00 495.00 C 310.56 441.06 332.08 392.03 372.75 355.75 C 413.42 319.47 468.26 297.61 524.00 303.00 Z"/>
</g>
<g fill="None" fill-opacity="0.0" stroke="#FDF9E6" stroke-opacity="1.00" stroke-width="0.3"><path d="
M 524.00 303.00 
C 468.26 297.61 413.42 319.47 372.75 355.75 C 332.08 392.03 310.56 441.06 308.00 495.00 C 305.44 548.94 324.89 605.57 362.25 644.75 C 399.61 683.93 445.21 707.05 500.00 710.00 C 554.79 712.95 611.04 694.40 650.25 656.25 C 689.45 618.10 712.03 573.41 716.00 518.00 C 719.97 462.59 700.04 407.95 662.75 367.25 C 625.46 326.55 577.56 308.18 524.00 303.00 Z"/>
</g>
<g fill="#F57A00" fill-opacity="1.00" stroke="None">
<path d="
M 0.00 1024.00 
L 1024.00 1024.00
L 1024.00 0.00
L 0.00 0.00
L 0.00 1024.00
M 543.00 86.00 
C 578.65 89.45 621.35 97.91 654.22 109.78 C 687.10 121.64 716.70 135.09 744.75 154.25 C 772.79 173.42 795.30 189.94 818.75 215.25 C 842.20 240.56 859.58 263.24 876.77 293.23 C 893.96 323.22 907.44 352.70 917.77 387.23 C 928.11 421.76 934.38 466.92 935.00 505.00 C 935.63 543.08 929.15 589.51 919.07 624.07 C 908.99 658.63 896.12 689.95 878.74 719.74 C 861.36 749.54 844.46 771.59 820.75 796.75 C 797.04 821.92 775.66 839.21 747.30 858.30 C 718.95 877.40 691.26 892.53 657.78 904.78 C 624.29 917.02 584.66 926.11 547.00 929.00 C 509.34 931.89 457.21 929.72 421.99 921.01 C 386.77 912.30 352.77 902.29 321.98 886.03 C 291.18 869.76 266.57 853.67 240.30 831.70 C 214.03 809.72 194.80 789.98 174.08 762.92 C 153.37 735.86 138.42 710.37 123.69 678.31 C 108.97 646.24 99.17 608.99 93.67 572.33 C 88.17 535.67 86.60 484.17 92.33 447.33 C 98.06 410.49 108.23 374.55 121.92 341.92 C 135.62 309.29 150.17 283.16 170.75 255.75 C 191.33 228.35 210.41 208.02 236.70 185.70 C 262.98 163.38 285.74 146.73 317.23 131.23 C 348.72 115.73 380.26 102.76 416.67 95.67 C 453.08 88.58 503.03 82.13 543.00 86.00 Z"/>
</g>
<g fill="#FDA100" fill-opacity="1.00" stroke="None">
<path d="
M 543.00 86.00 
C 503.03 82.13 453.08 88.58 416.67 95.67 C 380.26 102.76 348.72 115.73 317.23 131.23 C 285.74 146.73 262.98 163.38 236.70 185.70 C 210.41 208.02 191.33 228.35 170.75 255.75 C 150.17 283.16 135.62 309.29 121.92 341.92 C 108.23 374.55 98.06 410.49 92.33 447.33 C 86.60 484.17 88.17 535.67 93.67 572.33 C 99.17 608.99 108.97 646.24 123.69 678.31 C 138.42 710.37 153.37 735.86 174.08 762.92 C 194.80 789.98 214.03 809.72 240.30 831.70 C 266.57 853.67 291.18 869.76 321.98 886.03 C 352.77 902.29 386.77 912.30 421.99 921.01 C 457.21 929.72 509.34 931.89 547.00 929.00 C 584.66 926.11 624.29 917.02 657.78 904.78 C 691.26 892.53 718.95 877.40 747.30 858.30 C 775.66 839.21 797.04 821.92 820.75 796.75 C 844.46 771.59 861.36 749.54 878.74 719.74 C 896.12 689.95 908.99 658.63 919.07 624.07 C 929.15 589.51 935.63 543.08 935.00 505.00 C 934.38 466.92 928.11 421.76 917.77 387.23 C 907.44 352.70 893.96 323.22 876.77 293.23 C 859.58 263.24 842.20 240.56 818.75 215.25 C 795.30 189.94 772.79 173.42 744.75 154.25 C 716.70 135.09 687.10 121.64 654.22 109.78 C 621.35 97.91 578.65 89.45 543.00 86.00
M 532.00 158.00 
C 568.66 161.55 611.82 169.72 645.08 183.92 C 678.33 198.13 705.56 212.97 733.08 235.92 C 760.60 258.86 779.70 279.56 800.30 308.70 C 820.91 337.83 834.18 367.90 846.33 402.67 C 858.47 437.45 863.83 488.08 862.00 527.00 C 860.17 565.92 850.68 606.45 836.08 640.08 C 821.48 673.71 807.13 700.49 783.75 727.75 C 760.38 755.02 740.14 774.78 710.77 794.77 C 681.40 814.76 651.75 829.14 616.78 840.78 C 581.81 852.42 530.71 857.84 492.00 856.00 C 453.29 854.16 412.84 844.04 378.92 830.08 C 345.01 816.11 319.10 800.13 291.25 777.75 C 263.40 755.37 243.74 734.86 223.23 705.77 C 202.72 676.68 188.57 646.83 177.07 611.93 C 165.58 577.03 159.67 525.73 162.00 487.00 C 164.33 448.27 173.36 407.51 187.92 373.92 C 202.49 340.33 217.31 314.12 240.30 286.30 C 263.30 258.48 284.33 239.70 313.70 219.70 C 343.06 199.69 371.94 183.52 407.68 173.68 C 443.41 163.83 492.08 154.14 532.00 158.00 Z"/>
</g>
<g fill="#FEBE00" fill-opacity="1.00" stroke="None">
<path d="
M 532.00 158.00 
C 492.08 154.14 443.41 163.83 407.68 173.68 C 371.94 183.52 343.06 199.69 313.70 219.70 C 284.33 239.70 263.30 258.48 240.30 286.30 C 217.31 314.12 202.49 340.33 187.92 373.92 C 173.36 407.51 164.33 448.27 162.00 487.00 C 159.67 525.73 165.58 577.03 177.07 611.93 C 188.57 646.83 202.72 676.68 223.23 705.77 C 243.74 734.86 263.40 755.37 291.25 777.75 C 319.10 800.13 345.01 816.11 378.92 830.08 C 412.84 844.04 453.29 854.16 492.00 856.00 C 530.71 857.84 581.81 852.42 616.78 840.78 C 651.75 829.14 681.40 814.76 710.77 794.77 C 740.14 774.78 760.38 755.02 783.75 727.75 C 807.13 700.49 821.48 673.71 836.08 640.08 C 850.68 606.45 860.17 565.92 862.00 527.00 C 863.83 488.08 858.47 437.45 846.33 402.67 C 834.18 367.90 820.91 337.83 800.30 308.70 C 779.70 279.56 760.60 258.86 733.08 235.92 C 705.56 212.97 678.33 198.13 645.08 183.92 C 611.82 169.72 568.66 161.55 532.00 158.00
M 528.00 230.00 
C 575.61 234.61 627.22 249.43 666.25 276.75 C 705.28 304.07 732.06 330.23 755.77 372.23 C 779.48 414.23 792.04 473.82 789.00 523.00 C 785.96 572.18 769.92 621.87 742.08 661.08 C 714.23 700.28 686.82 725.50 645.77 749.77 C 604.72 774.04 545.52 786.88 496.00 784.00 C 446.48 781.12 398.02 763.85 358.25 736.75 C 318.48 709.65 293.07 682.32 269.08 640.92 C 245.08 599.53 231.58 541.24 234.00 492.00 C 236.42 442.76 253.78 393.24 280.75 353.75 C 307.73 314.27 334.90 288.06 377.08 265.08 C 419.25 242.09 476.70 225.04 528.00 230.00 Z"/>
</g>
<g fill="#FECD02" fill-opacity="1.00" stroke="None">
<path d="
M 528.00 230.00 
C 476.70 225.04 419.25 242.09 377.08 265.08 C 334.90 288.06 307.73 314.27 280.75 353.75 C 253.78 393.24 236.42 442.76 234.00 492.00 C 231.58 541.24 245.08 599.53 269.08 640.92 C 293.07 682.32 318.48 709.65 358.25 736.75 C 398.02 763.85 446.48 781.12 496.00 784.00 C 545.52 786.88 604.72 774.04 645.77 749.77 C 686.82 725.50 714.23 700.28 742.08 661.08 C 769.92 621.87 785.96 572.18 789.00 523.00 C 792.04 473.82 779.48 414.23 755.77 372.23 C 732.06 330.23 705.28 304.07 666.25 276.75 C 627.22 249.43 575.61 234.61 528.00 230.00
M 524.00 303.00 
C 577.56 308.18 625.46 326.55 662.75 367.25 C 700.04 407.95 719.97 462.59 716.00 518.00 C 712.03 573.41 689.45 618.10 650.25 656.25 C 611.04 694.40 554.79 712.95 500.00 710.00 C 445.21 707.05 399.61 683.93 362.25 644.75 C 324.89 605.57 305.44 548.94 308.00 495.00 C 310.56 441.06 332.08 392.03 372.75 355.75 C 413.42 319.47 468.26 297.61 524.00 303.00 Z"/>
</g>
<g fill="#FDF9E6" fill-opacity="1.00" stroke="None">
<path d="
M 524.00 303.00 
C 468.26 297.61 413.42 319.47 372.75 355.75 C 332.08 392.03 310.56 441.06 308.00 495.00 C 305.44 548.94 324.89 605.57 362.25 644.75 C 399.61 683.93 445.21 707.05 500.00 710.00 C 554.79 712.95 611.04 694.40 650.25 656.25 C 689.45 618.10 712.03 573.41 716.00 518.00 C 719.97 462.59 700.04 407.95 662.75 367.25 C 625.46 326.55 577.56 308.18 524.00 303.00 Z"/>
</g>
</svg>